<svg xmlns="http://www.w3.org/2000/svg" xmlns:xlink="http://www.w3.org/1999/xlink" width="40" zoomAndPan="magnify" viewBox="0 0 30 30.000001" height="40" preserveAspectRatio="xMidYMid meet" version="1.0"><defs><clipPath id="id1"><path d="M 6.472656 0 L 23.890625 0 L 23.890625 27 L 6.472656 27 Z M 6.472656 0 " clip-rule="nonzero"/></clipPath></defs><path fill="#000000" d="M 19.121094 27.371094 C 19.121094 28.269531 17.375 29 15.226562 29 C 13.074219 29 11.332031 28.269531 11.332031 27.371094 C 11.332031 26.472656 13.074219 25.742188 15.226562 25.742188 C 17.375 25.742188 19.121094 26.472656 19.121094 27.371094 " fill-opacity="1" fill-rule="nonzero"/><path fill="#a3c218" d="M 19.039062 26.976562 C 19.039062 27.875 17.316406 28.605469 15.1875 28.605469 C 13.058594 28.605469 11.332031 27.875 11.332031 26.976562 C 11.332031 26.078125 13.058594 25.347656 15.1875 25.347656 C 17.316406 25.347656 19.039062 26.078125 19.039062 26.976562 " fill-opacity="1" fill-rule="nonzero"/><g clip-path="url(#id1)"><path fill="#000000" d="M 15.335938 0.0351562 C 15.28125 0.0351562 15.230469 0.0351562 15.183594 0.0390625 C 15.128906 0.0351562 15.078125 0.0351562 15.027344 0.0351562 C 10.300781 0.0351562 6.46875 3.945312 6.46875 8.773438 C 6.46875 9.597656 6.792969 11.5 7.285156 12.289062 L 15.183594 26.976562 L 23.078125 12.289062 C 23.570312 11.5 23.894531 9.597656 23.894531 8.773438 C 23.894531 3.945312 20.0625 0.0351562 15.335938 0.0351562 " fill-opacity="1" fill-rule="nonzero"/></g><path fill="#a3c218" d="M 19.910156 7.796875 C 19.910156 10.355469 17.792969 12.429688 15.183594 12.429688 C 12.570312 12.429688 10.453125 10.355469 10.453125 7.796875 C 10.453125 5.242188 12.570312 3.167969 15.183594 3.167969 C 17.792969 3.167969 19.910156 5.242188 19.910156 7.796875 " fill-opacity="1" fill-rule="nonzero"/></svg>