<svg xmlns="http://www.w3.org/2000/svg" xmlns:xlink="http://www.w3.org/1999/xlink" width="1024" zoomAndPan="magnify" viewBox="0 0 768 449.999984" height="600" preserveAspectRatio="xMidYMid meet" version="1.0"><defs><g/><clipPath id="id1"><path d="M 759 340 L 766.308594 340 L 766.308594 400 L 759 400 Z M 759 340 " clip-rule="nonzero"/></clipPath><clipPath id="id2"><path d="M 209 0 L 766.308594 0 L 766.308594 450 L 209 450 Z M 209 0 " clip-rule="nonzero"/></clipPath><clipPath id="id3"><path d="M 758 433 L 766.308594 433 L 766.308594 450 L 758 450 Z M 758 433 " clip-rule="nonzero"/></clipPath><clipPath id="id4"><path d="M 287 136 L 307 136 L 307 144.992188 L 287 144.992188 Z M 287 136 " clip-rule="nonzero"/></clipPath><clipPath id="id5"><path d="M 275.363281 73 L 318.113281 73 L 318.113281 140 L 275.363281 140 Z M 275.363281 73 " clip-rule="nonzero"/></clipPath><clipPath id="id6"><path d="M 313 202 L 333 202 L 333 211.125 L 313 211.125 Z M 313 202 " clip-rule="nonzero"/></clipPath><clipPath id="id7"><path d="M 301.890625 139.125 L 344.640625 139.125 L 344.640625 207 L 301.890625 207 Z M 301.890625 139.125 " clip-rule="nonzero"/></clipPath><clipPath id="id8"><path d="M 455 257 L 475 257 L 475 265.976562 L 455 265.976562 Z M 455 257 " clip-rule="nonzero"/></clipPath><clipPath id="id9"><path d="M 443.851562 194 L 486.601562 194 L 486.601562 261 L 443.851562 261 Z M 443.851562 194 " clip-rule="nonzero"/></clipPath><clipPath id="id10"><path d="M 519 264 L 540 264 L 540 272.800781 L 519 272.800781 Z M 519 264 " clip-rule="nonzero"/></clipPath><clipPath id="id11"><path d="M 508.019531 200.800781 L 550.769531 200.800781 L 550.769531 268 L 508.019531 268 Z M 508.019531 200.800781 " clip-rule="nonzero"/></clipPath><clipPath id="id12"><path d="M 249 211 L 269 211 L 269 219.300781 L 249 219.300781 Z M 249 211 " clip-rule="nonzero"/></clipPath><clipPath id="id13"><path d="M 237.429688 147.300781 L 280.179688 147.300781 L 280.179688 215 L 237.429688 215 Z M 237.429688 147.300781 " clip-rule="nonzero"/></clipPath><clipPath id="id14"><path d="M 207.664062 225 L 250.414062 225 L 250.414062 292 L 207.664062 292 Z M 207.664062 225 " clip-rule="nonzero"/></clipPath></defs><path fill="#3d63ac" d="M 432.65625 5.554688 C 432.65625 5.554688 429.9375 9.304688 436.40625 9.304688 C 443 9.304688 456.582031 4.910156 467.445312 4.910156 C 478.308594 4.910156 475.078125 1.160156 472.878906 1.160156 C 470.679688 1.160156 464.730469 -4.789062 456.066406 -4.273438 C 447.398438 -3.753906 447.917969 0.125 442.484375 0.125 C 437.050781 0.125 438.085938 -1.558594 426.707031 -0.910156 C 415.324219 -0.394531 426.707031 4.519531 432.65625 5.554688 Z M 432.65625 5.554688 " fill-opacity="1" fill-rule="nonzero"/><path fill="#3d63ac" d="M 344.449219 17.191406 C 345.09375 17.320312 345.613281 17.449219 346.128906 17.582031 C 351.5625 19.777344 355.441406 16.546875 355.957031 12.148438 C 361.90625 3.484375 359.710938 19.261719 366.304688 16.546875 C 372.773438 13.832031 382.085938 7.234375 389.714844 3.484375 C 397.347656 -0.265625 380.402344 1.289062 366.824219 -0.910156 C 353.242188 -3.109375 334.101562 0.769531 328.667969 4.519531 C 323.625 8.011719 336.558594 14.863281 344.449219 17.191406 Z M 344.449219 17.191406 " fill-opacity="1" fill-rule="nonzero"/><g clip-path="url(#id1)"><path fill="#3d63ac" d="M 787.941406 342.394531 C 784.191406 347.179688 776.949219 357.652344 772.03125 361.402344 C 767.117188 365.023438 758.582031 360.238281 759.230469 368.773438 C 759.875 377.308594 760.394531 381.058594 761.039062 387.136719 C 761.6875 393.210938 762.851562 396.960938 772.03125 396.960938 C 781.214844 396.960938 785.484375 400.066406 788.589844 398.773438 C 791.691406 397.609375 791.046875 392.046875 794.667969 384.679688 C 798.289062 377.308594 804.496094 379.117188 802.039062 373.6875 C 799.582031 368.128906 799.582031 369.421875 799.582031 363.859375 C 799.582031 358.300781 802.6875 362.050781 800.875 352.867188 C 798.933594 343.6875 792.210938 336.964844 787.941406 342.394531 Z M 787.941406 342.394531 " fill-opacity="1" fill-rule="nonzero"/></g><g clip-path="url(#id2)"><path fill="#3d63ac" d="M 808.894531 427.347656 C 817.558594 428.382812 824.15625 427.347656 830.105469 424.117188 C 836.054688 420.882812 833.339844 417.003906 832.820312 415.453125 C 832.304688 413.773438 827.90625 417.132812 821.957031 418.167969 C 816.007812 419.203125 814.324219 419.203125 806.695312 419.847656 C 799.0625 420.367188 803.980469 417.132812 795.832031 416.617188 C 787.683594 416.097656 779.535156 414.417969 770.222656 411.1875 C 760.910156 407.953125 756.125 405.238281 749.527344 403.039062 C 742.933594 400.839844 749.011719 397.089844 748.492188 387.78125 C 747.976562 378.472656 741.898438 382.351562 737.113281 379.117188 C 732.199219 375.886719 733.878906 368.773438 736.078125 370.972656 C 738.277344 373.167969 738.792969 375.886719 738.792969 364.378906 C 738.792969 353 728.445312 345.371094 721.980469 335.542969 C 715.382812 325.714844 716.546875 320.285156 717.066406 315.371094 C 717.582031 310.457031 729.09375 319.765625 735.042969 326.75 C 740.992188 333.859375 740.992188 333.859375 744.355469 332.179688 C 747.589844 330.5 757.417969 325.066406 759.617188 316.40625 C 761.816406 307.742188 742.15625 290.285156 739.441406 282.140625 C 736.722656 273.992188 743.191406 278.90625 746.554688 273.476562 C 749.789062 268.042969 753.667969 275.671875 751.46875 279.421875 C 749.269531 283.171875 751.984375 285.371094 754.183594 289.25 C 756.382812 293 756.382812 289.25 758.582031 284.335938 C 760.78125 279.421875 759.097656 277.742188 762.980469 274.511719 C 766.859375 271.277344 781.476562 266.882812 785.355469 263.132812 C 789.234375 259.382812 791.949219 254.984375 796.734375 241.40625 C 801.652344 227.832031 796.21875 228.347656 794.019531 223.433594 C 791.820312 218.519531 785.355469 210.375 781.476562 205.460938 C 777.722656 200.546875 780.957031 201.710938 783.671875 200.03125 C 786.390625 198.347656 784.191406 194.597656 777.722656 192.402344 C 771.128906 190.203125 772.292969 194.597656 766.34375 193.4375 C 760.394531 192.402344 763.625 188.003906 770.09375 180.375 C 776.6875 172.746094 773.328125 182.058594 777.722656 185.289062 C 782.121094 188.523438 783.15625 182.574219 786.390625 184.253906 C 789.621094 185.9375 796.21875 189.167969 801.132812 195.632812 C 806.046875 202.097656 806.046875 209.726562 810.964844 209.210938 C 815.878906 208.695312 815.878906 206.496094 818.078125 201.582031 C 820.277344 196.667969 812.128906 192.273438 808.246094 188.523438 C 804.367188 184.773438 800.617188 184.773438 803.851562 181.410156 C 807.082031 178.175781 804.367188 173.265625 806.046875 169.386719 C 807.730469 165.636719 813.679688 167.703125 819.628906 164.988281 C 825.578125 162.273438 826.097656 152.964844 826.097656 143.265625 C 826.097656 133.4375 821.179688 129.171875 818.464844 125.808594 C 815.75 122.578125 821.699219 124.128906 826.613281 128.007812 C 831.527344 131.757812 839.160156 152.445312 840.710938 160.722656 C 842.390625 168.867188 841.226562 168.867188 847.824219 175.980469 C 854.421875 183.089844 852.222656 181.925781 850.023438 190.074219 C 847.824219 198.21875 842.390625 200.417969 834.242188 202.617188 C 826.097656 204.8125 828.8125 206.367188 823.898438 214.640625 C 818.980469 222.789062 826.613281 223.304688 831.011719 225.503906 C 835.40625 227.703125 837.476562 219.554688 843.039062 215.675781 C 848.472656 211.925781 854.421875 209.082031 863.734375 209.082031 C 873.042969 209.082031 861.015625 196.539062 860.5 190.074219 C 859.980469 183.609375 859.464844 179.210938 857.265625 174.296875 C 855.066406 169.382812 859.464844 169.382812 865.929688 166.152344 C 872.398438 162.917969 871.878906 156.324219 868.128906 156.324219 C 864.378906 156.324219 861.015625 159.039062 852.351562 158.523438 C 843.683594 158.007812 845.882812 150.894531 843.683594 148.179688 C 841.488281 145.464844 838.769531 139.515625 838.253906 134.601562 C 837.734375 129.6875 830.105469 123.222656 824.671875 118.308594 C 819.242188 113.394531 816.007812 110.164062 816.007812 112.359375 C 816.007812 114.558594 812.773438 111.84375 805.144531 111.328125 C 797.511719 110.808594 795.832031 112.359375 789.363281 111.84375 C 782.769531 111.328125 789.882812 100.464844 792.597656 92.835938 C 795.3125 85.207031 802.945312 89.601562 808.894531 89.601562 C 814.84375 89.601562 817.558594 90.121094 826.355469 92.320312 C 835.019531 94.515625 831.269531 86.886719 832.949219 80.941406 C 834.632812 74.992188 838.382812 78.222656 843.296875 80.421875 C 848.210938 82.621094 849.765625 83.136719 849.765625 78.222656 C 849.765625 73.3125 854.160156 72.277344 857.914062 76.542969 C 861.664062 80.941406 851.316406 90.121094 851.316406 90.121094 C 851.316406 90.121094 848.082031 99.949219 854.03125 103.179688 C 859.980469 106.414062 872.011719 120.636719 879.125 125.550781 C 886.238281 130.464844 881.320312 117.402344 881.320312 108.09375 C 881.320312 98.785156 874.855469 99.949219 869.941406 91.285156 C 865.027344 82.621094 868.257812 86.371094 877.570312 86.371094 C 886.882812 86.371094 887.402344 83.136719 889.601562 80.421875 C 891.796875 77.707031 893.351562 77.191406 901.628906 77.191406 C 909.777344 77.191406 904.863281 73.957031 901.109375 69.5625 C 897.359375 65.164062 889.730469 66.328125 892.445312 63.613281 C 895.160156 60.898438 909.90625 65.292969 916.890625 68.007812 C 924.003906 70.726562 922.320312 68.527344 921.289062 62.0625 C 920.253906 55.597656 914.171875 60.378906 896.84375 53.914062 C 879.382812 47.449219 860.371094 43.570312 854.421875 43.570312 C 848.472656 43.570312 852.738281 39.820312 857.136719 39.820312 C 861.535156 39.820312 860.371094 36.070312 856.101562 33.871094 C 851.703125 31.675781 847.953125 33.355469 846.273438 38.269531 C 844.589844 43.183594 851.1875 43.699219 838.640625 43.699219 C 826.09375 43.699219 816.914062 43.699219 802.167969 40.984375 C 787.425781 38.269531 781.992188 38.269531 769.445312 37.753906 C 756.902344 37.234375 758.066406 31.804688 745 31.804688 C 731.9375 31.804688 736.335938 26.890625 730.902344 20.941406 C 725.472656 14.996094 722.757812 16.546875 706.460938 16.546875 C 690.164062 16.546875 698.828125 23.011719 702.0625 24.175781 C 705.296875 25.210938 714.089844 27.925781 720.039062 33.484375 C 725.988281 38.914062 709.175781 36.71875 702.0625 37.234375 C 694.949219 37.753906 695.59375 33.484375 687.316406 28.570312 C 679.167969 23.65625 658.992188 26.375 647.613281 25.855469 C 636.230469 25.339844 635.582031 25.855469 631.316406 17.710938 C 626.917969 9.5625 617.734375 13.960938 605.707031 13.960938 C 593.679688 13.960938 587.210938 8.011719 581.261719 4.132812 C 575.3125 0.382812 566 -0.265625 552.9375 -2.332031 C 539.875 -4.53125 546.988281 5.8125 551.902344 6.332031 C 551.902344 6.332031 557.335938 8.527344 562.765625 9.046875 C 568.199219 9.5625 579.710938 10.082031 585.660156 17.191406 C 591.609375 24.304688 567.164062 21.589844 556.300781 27.535156 C 545.4375 33.484375 536.640625 30.769531 529.140625 34.003906 C 521.507812 37.234375 532.890625 42.664062 535.734375 49.777344 C 538.453125 56.890625 535.734375 56.890625 530.820312 58.441406 C 525.90625 60.121094 532.503906 50.8125 530.304688 48.097656 C 528.105469 45.382812 519.957031 31.285156 513.488281 26.890625 C 506.894531 22.492188 508.058594 30.640625 509.09375 36.71875 C 510.128906 42.664062 511.808594 42.664062 513.488281 47.0625 C 515.171875 51.457031 506.375 47.0625 502.109375 43.828125 C 497.710938 40.597656 483.613281 48.226562 477.015625 44.863281 C 470.550781 41.632812 479.214844 42.664062 479.214844 39.433594 C 479.214844 36.199219 471.585938 38.914062 469.386719 34.003906 C 467.1875 29.089844 482.964844 23.140625 492.796875 21.460938 C 502.625 19.777344 501.460938 19.777344 501.460938 14.996094 C 501.460938 10.082031 484 11.761719 469.386719 18.742188 C 454.640625 25.855469 458.523438 30.769531 456.324219 35.554688 C 454.125 40.46875 461.238281 40.984375 464.472656 43.699219 C 467.703125 46.414062 460.71875 47.449219 454.125 49.648438 C 447.65625 51.847656 445.976562 49.648438 438.34375 52.363281 C 430.714844 55.078125 435.113281 58.3125 428.515625 61.027344 C 422.050781 63.742188 422.566406 63.742188 417.132812 65.941406 C 411.703125 68.140625 418.167969 57.792969 425.800781 56.628906 C 433.429688 55.597656 431.230469 51.199219 429.035156 49.519531 C 426.835938 47.835938 412.738281 43.570312 397.476562 39.175781 C 382.214844 34.777344 357.769531 40.855469 349.621094 44.605469 C 341.472656 48.355469 341.988281 51.199219 340.957031 56.628906 C 339.921875 62.0625 321.296875 70.207031 312.113281 75.121094 C 302.800781 80.035156 311.078125 86.5 313.792969 90.894531 C 316.511719 95.292969 322.460938 93.09375 330.089844 90.894531 C 337.722656 88.699219 336.558594 98.007812 337.722656 101.242188 C 338.757812 104.472656 343.152344 104.992188 350.265625 101.757812 C 357.382812 98.527344 355.699219 90.894531 355.699219 86.5 C 355.699219 82.105469 354.019531 79.90625 358.933594 73.957031 C 363.847656 68.007812 368.246094 64.128906 372.511719 61.414062 C 376.910156 58.699219 376.265625 63.613281 369.796875 69.042969 C 363.332031 74.476562 367.597656 76.15625 370.832031 82.621094 C 374.066406 89.214844 380.660156 82.621094 388.808594 81.585938 C 396.957031 80.550781 381.695312 88.699219 375.746094 88.699219 C 369.796875 88.699219 375.746094 95.164062 371.996094 95.164062 C 368.246094 95.164062 367.597656 97.878906 367.082031 104.472656 C 366.5625 111.066406 364.367188 109.386719 359.96875 111.066406 C 355.570312 112.75 349.105469 113.265625 341.988281 111.585938 C 334.875 109.90625 335.523438 103.4375 330.609375 99.042969 C 325.695312 94.644531 324.660156 101.242188 324.660156 103.957031 C 324.660156 106.671875 319.746094 112.621094 317.546875 112.621094 C 315.347656 112.621094 308.878906 119.214844 305 124.644531 C 301.25 130.074219 298.53125 126.84375 297.367188 124.644531 C 296.335938 122.445312 300.085938 119.214844 297.886719 113.785156 C 295.6875 108.351562 287.023438 103.957031 289.738281 91.414062 C 292.453125 78.871094 286.503906 85.464844 277.710938 86.5 C 269.042969 87.535156 266.328125 91.414062 265.683594 94.644531 C 265.164062 97.878906 260.25 104.472656 254.816406 110.421875 C 249.386719 116.371094 253.136719 121.28125 255.851562 127.878906 C 258.566406 134.472656 265.683594 125.679688 267.878906 120.25 C 270.078125 114.816406 272.796875 112.101562 276.027344 114.816406 C 279.261719 117.535156 271.113281 122.445312 270.078125 128.914062 C 269.042969 135.507812 272.277344 134.859375 279.910156 132.660156 C 287.539062 130.464844 283.660156 128.914062 289.738281 131.628906 C 295.6875 134.34375 284.304688 136.542969 277.191406 137.058594 C 270.078125 137.574219 272.796875 142.488281 278.875 146.886719 C 284.824219 151.28125 282.105469 157.746094 278.355469 158.265625 C 274.605469 158.78125 267.492188 159.945312 256.628906 162.015625 C 245.765625 164.210938 255.59375 172.875 253.394531 177.789062 C 251.195312 182.703125 250.679688 193.566406 255.59375 194.082031 C 260.507812 194.597656 260.507812 202.746094 257.792969 205.460938 C 255.074219 208.175781 254.558594 210.890625 247.960938 215.804688 C 241.367188 220.71875 246.28125 225.117188 244.210938 231.582031 C 242.011719 238.046875 236.582031 234.296875 230.113281 241.40625 C 223.648438 248.519531 220.800781 253.949219 216.015625 262.097656 C 211.101562 270.242188 210.585938 270.761719 216.535156 280.585938 C 222.484375 290.414062 216.535156 293.128906 211.621094 301.792969 C 206.703125 310.457031 213.300781 311.101562 215.371094 318.601562 C 217.570312 326.230469 221.964844 324.550781 223.519531 332.179688 C 225.199219 339.808594 227.269531 342.007812 234.898438 347.4375 C 242.53125 352.867188 250.160156 360.496094 253.910156 358.816406 C 257.664062 357.136719 263.742188 352.867188 276.289062 353.386719 C 288.832031 353.902344 284.433594 347.957031 297.5 345.757812 C 310.5625 343.558594 303.449219 347.4375 305.128906 351.1875 C 306.8125 355.066406 313.792969 358.816406 323.625 359.335938 C 333.453125 359.851562 325.304688 371.875 324.660156 379.503906 C 324.140625 387.136719 324.660156 387.136719 329.574219 393.601562 C 334.488281 400.066406 340.957031 414.804688 342.636719 422.433594 C 344.316406 430.0625 340.957031 438.726562 336.6875 445.839844 C 332.289062 452.949219 333.972656 469.242188 343.152344 481.269531 C 352.464844 493.292969 346.90625 492.648438 346.90625 505.191406 C 346.90625 517.734375 353.5 515.535156 358.285156 522.648438 C 363.199219 529.757812 361.003906 542.816406 365.398438 549.800781 C 369.796875 556.914062 377.429688 550.316406 386.09375 547.085938 C 394.757812 543.851562 398.640625 544.886719 408.984375 537.257812 C 419.332031 529.628906 427.480469 514.371094 427.480469 510.105469 C 427.480469 505.707031 430.714844 504.15625 436.148438 501.957031 C 441.578125 499.757812 440.542969 485.664062 439.898438 481.785156 C 439.378906 478.035156 440.933594 474.675781 443.132812 472.476562 C 445.328125 470.277344 458.910156 457.21875 463.824219 451.789062 C 468.738281 446.355469 464.34375 438.726562 463.308594 430.0625 C 462.273438 421.402344 458.910156 418.039062 458.910156 407.695312 C 458.910156 397.351562 455.675781 398.382812 473.65625 381.574219 C 491.632812 364.765625 508.445312 338 510.128906 332.050781 C 511.808594 326.101562 511.160156 321.1875 510.128906 316.792969 C 509.09375 312.394531 485.683594 321.1875 480.25 321.1875 C 474.820312 321.1875 464.988281 309.164062 463.953125 304.898438 C 462.917969 300.5 454.640625 296.234375 447.65625 289.636719 C 440.542969 283.171875 445.976562 273.863281 440.542969 266.75 C 435.113281 259.640625 432.394531 249.296875 431.230469 243.347656 C 430.199219 237.398438 439.378906 247.742188 446.492188 255.890625 C 453.605469 264.035156 462.789062 279.292969 465.507812 284.726562 C 468.222656 290.15625 470.421875 298.300781 470.9375 304.898438 C 471.457031 311.363281 475.851562 312.527344 482.320312 312.007812 C 488.785156 311.492188 511.679688 299.464844 519.828125 295.714844 C 527.976562 291.964844 537.804688 280.457031 541.554688 269.597656 C 545.304688 258.734375 533.40625 260.285156 527.976562 254.855469 C 522.542969 249.425781 522.542969 254.855469 515.949219 256.535156 C 509.480469 258.21875 503.917969 249.425781 493.570312 239.726562 C 483.226562 229.898438 489.820312 233.261719 491.890625 231.0625 C 493.960938 228.863281 504.4375 235.976562 510.386719 243.089844 C 516.335938 250.199219 517.5 247.484375 524.484375 247.484375 C 531.597656 247.484375 533.148438 250.71875 542.460938 253.433594 C 551.773438 256.148438 556.558594 252.398438 564.578125 253.175781 C 572.46875 253.949219 571.304688 257.828125 576.863281 266.492188 C 582.296875 275.15625 580.097656 272.441406 592.125 273.605469 C 604.15625 274.640625 595.359375 273.605469 595.359375 281.234375 C 595.359375 288.863281 596.394531 291.578125 603.507812 300.886719 C 610.621094 310.199219 613.335938 327.523438 615.535156 336.316406 C 617.734375 344.980469 622.132812 336.316406 629.117188 336.316406 C 636.230469 336.316406 629.632812 342.265625 635.066406 351.058594 C 640.5 359.722656 644.378906 348.34375 644.378906 345.109375 C 644.378906 341.878906 641.144531 333.730469 637.910156 331.015625 C 634.679688 328.300781 630.28125 328.816406 634.03125 324.550781 C 637.910156 320.15625 634.546875 315.886719 634.546875 309.808594 C 634.546875 303.863281 635.066406 299.464844 637.78125 296.75 C 640.5 294.035156 650.328125 284.207031 656.277344 277.097656 C 662.226562 269.984375 667.140625 268.949219 675.289062 269.46875 C 683.4375 269.984375 676.972656 271.148438 681.886719 277.613281 C 686.800781 284.207031 687.835938 293.386719 693.265625 299.984375 C 698.699219 306.578125 699.214844 298.949219 703.613281 296.75 C 708.011719 294.550781 705.296875 303.214844 708.527344 309.808594 C 711.761719 316.40625 709.5625 325.066406 709.5625 331.015625 C 709.5625 336.964844 716.675781 343.042969 720.945312 348.472656 C 725.34375 353.902344 723.660156 356.617188 720.945312 358.816406 C 718.230469 361.015625 712.796875 353.386719 708.398438 348.988281 C 704.003906 344.59375 697.535156 347.308594 701.933594 352.222656 C 706.332031 357.136719 709.046875 365.800781 713.960938 375.109375 C 718.875 384.417969 729.222656 395.28125 736.335938 404.980469 C 743.449219 414.804688 766.210938 419.074219 775.007812 419.074219 C 782.769531 418.683594 800.226562 426.3125 808.894531 427.347656 Z M 431.101562 216.191406 C 427.871094 222.660156 426.1875 227.054688 421.273438 225.503906 C 416.359375 223.820312 400.0625 224.46875 391.914062 221.753906 C 383.765625 219.039062 371.738281 214.125 369.539062 220.074219 C 367.339844 226.019531 374.972656 230.933594 361.390625 226.019531 C 347.808594 221.105469 333.066406 215.160156 331.515625 210.761719 C 329.832031 206.367188 336.945312 194.46875 327.117188 194.46875 C 317.285156 194.46875 303.707031 193.953125 299.308594 197.183594 C 294.910156 200.417969 278.097656 206.496094 272.664062 204.8125 C 267.75 203.390625 260.121094 201.582031 268.914062 197.703125 C 277.582031 193.953125 287.925781 196.023438 289.089844 190.589844 C 290.125 185.160156 281.460938 184.125 290.125 179.210938 C 298.792969 174.296875 295.558594 169.902344 301.507812 167.1875 C 307.457031 164.472656 315.605469 164.988281 320.003906 163.4375 C 324.398438 161.753906 318.320312 160.203125 327.117188 165.117188 C 335.78125 170.03125 341.214844 179.210938 345.613281 179.859375 C 350.007812 180.375 352.726562 183.609375 350.007812 185.804688 C 347.292969 188.003906 342.894531 189.554688 341.34375 189.554688 C 339.660156 189.554688 338.628906 193.953125 340.308594 194.46875 C 341.988281 194.988281 345.742188 202.097656 348.457031 199.902344 C 351.171875 197.703125 348.457031 194.46875 353.371094 192.789062 C 358.285156 191.109375 363.199219 189.039062 361.003906 185.675781 C 358.804688 182.445312 356.605469 178.566406 361.003906 180.761719 C 365.398438 182.960938 369.152344 181.796875 364.234375 177.015625 C 359.320312 172.101562 357.640625 172.101562 351.691406 167.703125 C 345.742188 163.308594 339.144531 161.109375 339.144531 157.875 C 339.144531 154.644531 335.394531 148.566406 341.34375 150.765625 C 347.292969 152.964844 367.988281 164.34375 367.988281 168.738281 C 367.988281 173.132812 373.417969 180.761719 368.503906 184.511719 C 363.589844 188.261719 373.417969 189.425781 375.617188 191.625 C 377.816406 193.824219 376.652344 199.769531 382.730469 198.738281 C 388.679688 197.703125 393.078125 198.21875 389.84375 192.140625 C 386.609375 186.195312 381.179688 183.480469 386.609375 181.28125 C 392.042969 179.082031 393.207031 176.367188 394.757812 185.675781 C 396.441406 194.988281 394.242188 198.21875 407.304688 198.738281 C 420.367188 199.253906 429.035156 195.503906 430.714844 199.253906 C 432.136719 203.132812 434.335938 209.726562 431.101562 216.191406 Z M 452.3125 175.460938 C 443.648438 174.945312 428.902344 172.230469 421.789062 172.230469 C 414.675781 172.230469 411.960938 173.265625 411.960938 173.265625 C 406.011719 172.230469 391.785156 175.980469 398.898438 166.667969 C 406.011719 157.359375 401.613281 145.464844 410.28125 148.695312 C 418.945312 151.929688 419.59375 164.472656 425.023438 156.84375 C 430.457031 149.214844 436.40625 140.550781 438.085938 146.496094 C 439.769531 152.445312 430.457031 157.359375 441.835938 162.273438 C 453.347656 167.316406 460.980469 175.980469 452.3125 175.460938 Z M 504.566406 195.503906 C 496.417969 195.503906 486.589844 193.824219 486.589844 189.554688 L 486.589844 179.210938 C 482.191406 168.867188 476.757812 166.667969 476.757812 159.558594 C 476.757812 152.445312 481.15625 146.496094 489.820312 146.496094 C 498.488281 146.496094 502.882812 145.464844 496.289062 152.964844 C 489.820312 160.59375 483.742188 161.109375 492.539062 173.132812 C 501.332031 185.160156 512.714844 195.503906 504.566406 195.503906 Z M 504.566406 195.503906 " fill-opacity="1" fill-rule="nonzero"/></g><g clip-path="url(#id3)"><path fill="#3d63ac" d="M 921.285156 478.164062 C 915.726562 464.070312 915.726562 453.082031 912.75 447.003906 C 909.648438 440.925781 912.105469 433.554688 902.921875 433.554688 C 899.171875 433.554688 899.300781 436.011719 896.195312 443.898438 C 893.089844 451.789062 896.84375 466.527344 888.824219 464.71875 C 880.933594 462.90625 877.183594 459.15625 875.371094 451.269531 C 873.5625 443.382812 877.828125 436.011719 871.75 436.011719 C 865.671875 436.011719 848.472656 431.746094 844.203125 438.46875 C 839.933594 445.191406 845.367188 447.648438 836.3125 447.648438 C 827.128906 447.648438 823.507812 447.648438 818.59375 453.726562 C 813.679688 459.804688 806.953125 477.003906 780.699219 478.164062 C 754.441406 479.328125 767.894531 493.421875 767.894531 508.683594 C 767.894531 523.941406 753.796875 533.121094 760.003906 538.679688 C 766.082031 544.242188 758.195312 551.480469 771 547.214844 C 783.800781 542.949219 795.441406 541.65625 815.621094 538.679688 C 835.796875 535.578125 844.980469 534.414062 845.625 544.242188 C 846.273438 554.066406 843.167969 547.34375 851.1875 549.15625 C 859.207031 550.964844 850.539062 563.894531 859.722656 565.058594 C 868.90625 566.222656 863.34375 572.945312 871.363281 572.945312 C 879.253906 572.945312 882.355469 581.480469 875.632812 581.480469 C 868.90625 581.480469 859.078125 595.574219 868.90625 590.660156 C 878.734375 585.746094 888.4375 584.585938 888.4375 577.214844 C 888.4375 569.84375 887.273438 569.324219 898.78125 560.144531 C 910.421875 550.964844 937.324219 528.984375 935.515625 511.269531 C 933.574219 493.554688 926.847656 492.261719 921.285156 478.164062 Z M 921.285156 478.164062 " fill-opacity="1" fill-rule="nonzero"/></g><path fill="#3d63ac" d="M 128.972656 399.160156 C 119.144531 396.445312 118.625 399.675781 117.589844 394.246094 C 116.558594 388.816406 109.960938 388.816406 104.011719 388.816406 C 98.0625 388.816406 95.863281 388.296875 90.949219 383.902344 C 86.035156 379.507812 75.6875 378.988281 72.453125 377.953125 C 69.21875 376.917969 70.773438 367.609375 64.304688 358.945312 C 57.710938 350.28125 44.128906 348.601562 35.464844 343.6875 C 26.796875 338.773438 29.515625 319.765625 16.96875 321.320312 C 4.421875 323 3.386719 327.914062 -8.125 321.835938 C -19.503906 315.886719 -27.136719 312.007812 -33.214844 316.40625 C -39.164062 320.800781 -46.792969 328.949219 -50.675781 331.144531 C -54.425781 333.34375 -61.023438 329.464844 -64.773438 330.109375 C -68.523438 330.628906 -72.921875 326.230469 -75.636719 322.480469 C -78.351562 318.730469 -70.722656 299.59375 -77.835938 299.59375 C -84.949219 299.59375 -94.132812 296.363281 -94.132812 293.648438 C -94.132812 290.933594 -79.386719 274.640625 -83.785156 271.925781 C -88.183594 269.207031 -96.847656 270.890625 -104.480469 281.234375 C -112.109375 291.578125 -119.222656 291.0625 -122.972656 287.183594 C -126.722656 283.433594 -135.519531 261.0625 -128.40625 248.519531 C -121.292969 235.976562 -109.910156 230.027344 -101.246094 230.546875 C -92.578125 231.0625 -93.613281 228.347656 -84.949219 227.832031 C -76.285156 227.3125 -65.289062 230.027344 -63.21875 233.261719 C -61.023438 236.496094 -65.417969 241.925781 -59.988281 248.519531 C -54.554688 254.984375 -51.320312 252.269531 -50.675781 254.984375 C -50.15625 257.699219 -55.070312 260.414062 -57.140625 260.414062 C -59.339844 260.414062 -77.316406 265.328125 -70.203125 268.5625 C -63.089844 271.792969 -50.546875 269.078125 -47.828125 273.476562 C -45.113281 277.871094 -56.496094 287.050781 -40.199219 287.570312 C -23.902344 288.085938 -13.039062 290.285156 -3.726562 290.800781 C 5.585938 291.320312 12.054688 291.835938 13.089844 294.035156 C 14.121094 296.234375 20.71875 285.890625 5.457031 285.890625 C -9.804688 285.890625 -21.703125 277.226562 -29.980469 275.542969 C -38.128906 273.863281 -43.5625 268.433594 -44.078125 261.96875 C -44.597656 255.371094 -43.5625 250.589844 -46.792969 245.15625 C -50.027344 239.726562 -58.175781 226.667969 -50.546875 221.234375 C -42.914062 215.804688 -27.652344 205.460938 -23.902344 198.347656 C -20.152344 191.238281 -20.152344 189.6875 -11.355469 184.253906 C -2.691406 178.824219 7.65625 171.710938 12.570312 166.796875 C 17.484375 161.886719 25.632812 154.257812 27.316406 158.136719 C 28.996094 161.886719 36.628906 163.050781 45.808594 159.816406 C 55.121094 156.582031 66.503906 148.4375 56.675781 148.4375 C 46.84375 148.4375 40.894531 145.722656 43.613281 141.972656 C 46.328125 138.222656 37.144531 136.542969 34.300781 137.058594 C 31.582031 137.574219 31.582031 131.628906 40.894531 129.945312 C 50.207031 128.265625 42.578125 136.542969 50.207031 135.894531 C 57.839844 135.378906 62.753906 129.429688 68.183594 128.265625 C 73.617188 127.230469 75.816406 132.015625 68.703125 136.929688 C 61.589844 141.84375 59.390625 140.160156 68.703125 142.359375 C 78.015625 144.558594 80.730469 149.472656 86.164062 144.558594 C 91.59375 139.644531 85.128906 137.964844 84.480469 131.5 C 83.964844 125.03125 85.515625 113.007812 79.566406 108.609375 C 73.617188 104.214844 73.617188 98.785156 73.617188 94.515625 C 73.617188 90.121094 74.652344 80.941406 68.703125 85.207031 C 62.753906 89.601562 57.839844 92.320312 55.640625 90.121094 C 53.441406 87.921875 56.675781 83.527344 51.890625 80.292969 C 46.972656 77.0625 46.457031 72.148438 40.507812 72.664062 C 34.558594 73.183594 28.480469 68.269531 25.246094 75.378906 C 22.011719 82.492188 18.648438 88.441406 17.613281 90.636719 C 16.582031 92.835938 21.367188 100.464844 17.097656 104.214844 C 12.699219 107.964844 0.800781 113.523438 -0.878906 117.273438 C -2.5625 121.023438 -9.027344 130.851562 -10.710938 124.386719 C -12.390625 117.921875 -5.277344 108.09375 -15.105469 105.378906 C -24.9375 102.664062 -32.566406 104.863281 -34.121094 98.914062 C -35.800781 92.964844 -40.070312 87.535156 -30.367188 82.621094 C -20.539062 77.707031 -10.710938 69.042969 -1.527344 67.878906 C 7.785156 66.84375 1.1875 74.476562 8.820312 73.828125 C 16.449219 73.3125 7.785156 69.433594 16.96875 67.878906 C 26.28125 66.199219 24.597656 66.199219 21.882812 62.964844 C 19.167969 59.734375 20.847656 59.214844 27.832031 55.855469 C 34.945312 52.621094 29.515625 50.425781 36.496094 47.707031 C 43.613281 44.992188 45.164062 42.277344 49.042969 42.277344 C 52.792969 42.277344 52.277344 43.957031 50.078125 48.871094 C 47.878906 53.785156 46.328125 57.019531 52.792969 53.785156 C 59.390625 50.554688 62.625 48.355469 57.710938 53.269531 C 52.792969 58.183594 49.5625 58.183594 42.449219 59.214844 C 35.335938 60.25 37.53125 61.414062 40.765625 65.164062 C 44 68.914062 52.148438 69.5625 54.863281 71.628906 C 57.578125 73.828125 60.8125 81.457031 67.410156 77.578125 C 73.875 73.828125 69.089844 73.183594 77.757812 69.433594 C 86.421875 65.683594 98.96875 63.484375 97.933594 58.570312 C 96.898438 53.65625 88.101562 50.941406 87.070312 44.992188 C 86.035156 39.046875 99.097656 35.683594 82.152344 32.96875 C 65.339844 30.253906 75.039062 28.054688 66.890625 28.054688 C 58.742188 28.054688 43.480469 28.054688 38.050781 30.769531 C 32.617188 33.484375 29.382812 29.089844 26.667969 33.484375 C 23.953125 37.882812 27.1875 43.828125 24.46875 43.828125 C 21.753906 43.828125 16.839844 48.226562 14.640625 43.828125 C 12.441406 39.433594 7.527344 35.164062 14.121094 33.484375 C 20.589844 31.804688 21.753906 32.96875 22.789062 28.054688 C 23.824219 23.140625 13.476562 23.65625 19.554688 22.625 C 25.503906 21.589844 28.21875 23.140625 36.367188 23.140625 C 44.515625 23.140625 63.011719 26.375 65.726562 21.460938 C 68.445312 16.546875 61.332031 16.546875 53.183594 16.027344 C 45.035156 15.511719 30.808594 12.796875 24.859375 15.511719 C 18.910156 18.226562 11.277344 22.625 8.5625 26.890625 C 5.84375 31.285156 5.84375 25.855469 0.414062 26.890625 C -5.019531 27.925781 -14.332031 34.003906 -9.417969 37.234375 C -4.5 40.46875 -4.5 44.347656 -9.933594 44.347656 C -15.367188 44.347656 -17.046875 49.777344 -20.796875 49.777344 C -24.546875 49.777344 -34.894531 49.261719 -30.109375 46.542969 C -25.195312 43.828125 -19.761719 43.828125 -20.28125 37.234375 C -20.796875 30.640625 -14.847656 28.570312 -14.847656 26.375 C -14.847656 24.175781 -27.910156 31.285156 -38.257812 28.054688 C -48.605469 24.820312 -53.003906 19.90625 -63.347656 20.425781 C -73.695312 20.941406 -87.277344 34.519531 -80.808594 35.683594 C -74.214844 36.71875 -69.429688 34.648438 -68.265625 37.882812 C -67.230469 41.113281 -69.300781 43.828125 -65.546875 45.511719 C -61.796875 47.191406 -54.683594 51.457031 -63.867188 49.261719 C -73.050781 47.0625 -68.78125 43.3125 -82.878906 42.664062 C -96.976562 42.148438 -105.773438 37.753906 -120.386719 41.632812 C -135.132812 45.382812 -132.933594 48.742188 -142.761719 45.382812 C -152.589844 42.148438 -173.285156 34.519531 -189.582031 37.753906 C -205.878906 40.984375 -226.054688 46.414062 -230.96875 49.777344 C -235.882812 53.011719 -226.054688 56.242188 -234.71875 56.890625 C -243.386719 57.40625 -264.078125 56.890625 -259.8125 62.320312 C -255.414062 67.75 -249.980469 68.269531 -256.578125 69.433594 C -263.042969 70.464844 -271.839844 71.113281 -275.074219 75.898438 C -278.304688 80.8125 -290.335938 83.527344 -282.703125 85.722656 C -275.074219 87.921875 -262.527344 92.835938 -267.960938 93.351562 C -273.390625 93.871094 -301.199219 104.730469 -313.097656 107.449219 C -325.125 110.164062 -334.828125 123.222656 -324.480469 119.34375 C -311.285156 114.558594 -275.976562 103.570312 -269.511719 100.851562 C -263.042969 98.136719 -260.199219 100.335938 -260.847656 104.085938 C -261.363281 107.835938 -253.214844 102.40625 -246.75 97.492188 C -240.28125 92.578125 -240.28125 82.75 -234.71875 86.113281 C -229.289062 89.34375 -226.054688 86.113281 -221.65625 85.078125 C -217.257812 84.042969 -212.992188 81.328125 -209.113281 83.398438 C -205.359375 85.59375 -195.53125 87.792969 -192.816406 89.992188 C -190.097656 92.191406 -189.0625 97.101562 -191.78125 97.621094 C -194.496094 98.136719 -195.015625 100.851562 -194.496094 105.25 C -193.980469 109.644531 -191.78125 113.394531 -197.210938 114.558594 C -202.644531 115.59375 -201.609375 122.1875 -198.246094 121.671875 C -195.015625 121.152344 -192.816406 119.472656 -192.296875 116.242188 C -191.78125 113.007812 -184.667969 106.929688 -185.703125 111.328125 C -186.734375 115.722656 -189.453125 119.988281 -189.453125 123.351562 C -189.453125 126.585938 -193.203125 126.066406 -193.851562 129.300781 C -194.367188 132.53125 -193.332031 132.53125 -190.617188 135.25 C -187.898438 137.964844 -189.582031 139.644531 -190.097656 145.59375 C -190.617188 151.539062 -206.914062 167.960938 -209.113281 173.394531 C -211.308594 178.824219 -210.144531 186.453125 -210.144531 192.402344 C -210.144531 198.347656 -212.34375 205.976562 -206.394531 208.175781 C -200.445312 210.375 -199.929688 211.410156 -199.929688 216.839844 C -199.929688 222.269531 -199.929688 228.863281 -196.695312 232.613281 C -193.460938 236.363281 -195.015625 235.847656 -195.015625 241.925781 C -195.015625 248.003906 -191.261719 244.640625 -190.617188 249.554688 C -190.097656 254.46875 -193.332031 256.664062 -187.898438 260.414062 C -182.46875 264.164062 -176.519531 266.882812 -179.234375 260.933594 C -181.949219 254.984375 -183.632812 250.070312 -186.347656 241.277344 C -189.0625 232.613281 -190.746094 216.839844 -187.382812 221.625 C -184.148438 226.539062 -179.753906 241.277344 -174.835938 251.492188 C -169.921875 261.839844 -163.972656 260.804688 -163.972656 268.304688 C -163.972656 275.933594 -169.921875 283.042969 -158.023438 287.957031 C -145.996094 292.871094 -137.328125 303.214844 -130.214844 302.050781 C -123.101562 301.015625 -118.835938 296.621094 -116.117188 301.535156 C -113.402344 306.449219 -107.453125 312.914062 -100.855469 312.914062 C -94.390625 312.914062 -92.191406 317.308594 -91.027344 323.773438 C -89.992188 330.242188 -85.59375 331.402344 -79 333.601562 C -72.53125 335.800781 -70.851562 342.914062 -65.9375 342.265625 C -61.019531 341.75 -54.554688 339.550781 -54.554688 344.464844 C -54.554688 349.378906 -52.355469 361.273438 -60.503906 368.902344 C -68.652344 376.53125 -72.53125 381.960938 -68.136719 386.875 C -63.738281 391.789062 -67.617188 396.703125 -69.816406 400.453125 C -72.015625 404.203125 -68.136719 407.566406 -63.867188 413.511719 C -59.46875 419.460938 -53.519531 426.574219 -49.769531 438.597656 C -46.019531 450.625 -40.457031 454.890625 -31.273438 458.769531 C -21.960938 462.519531 -14.976562 469.113281 -14.976562 478.425781 C -14.976562 487.734375 -15.496094 519.285156 -15.496094 528.464844 C -15.496094 537.777344 -10.582031 546.957031 -12.261719 554.066406 C -13.941406 561.179688 -12.261719 567.128906 -10.0625 569.84375 C -7.863281 572.558594 -8.382812 578.507812 -7.863281 584.585938 C -7.347656 590.53125 -0.75 586.265625 -0.75 591.695312 C -0.75 597.125 -3.464844 605.273438 -0.234375 607.988281 C 3 610.703125 -3.984375 620.53125 10.632812 629.710938 C 25.375 639.023438 26.410156 639.539062 27.445312 641.089844 C 28.480469 642.769531 33.394531 637.859375 33.394531 640.574219 C 33.394531 643.289062 25.246094 651.433594 40.507812 651.433594 C 55.769531 651.433594 64.953125 653.632812 55.769531 646.519531 C 46.457031 639.410156 41.023438 642.769531 39.472656 635.660156 C 37.792969 628.546875 35.722656 629.710938 34.558594 624.796875 C 33.523438 619.882812 38.4375 617.6875 36.757812 612.773438 C 35.074219 607.859375 28.609375 607.859375 29.125 602.945312 C 29.644531 598.03125 33.523438 593.117188 34.558594 590.921875 C 35.59375 588.722656 35.59375 586.523438 32.875 584.453125 C 30.160156 582.257812 30.679688 581.738281 34.558594 580.574219 C 38.4375 579.542969 38.957031 581.09375 40.507812 575.660156 C 42.1875 570.230469 46.972656 570.75 49.171875 569.195312 C 51.371094 567.515625 59.003906 565.445312 56.285156 558.335938 C 53.570312 551.222656 48.136719 547.992188 54.089844 547.992188 C 60.039062 547.992188 66.117188 547.472656 69.867188 539.84375 C 73.617188 532.214844 72.066406 530.535156 76.464844 524.585938 C 80.859375 518.636719 81.378906 513.726562 81.378906 509.328125 C 81.378906 504.933594 79.179688 500.664062 85.128906 497.949219 C 91.078125 495.234375 110.738281 492 113.453125 483.855469 C 116.167969 475.710938 118.886719 467.046875 117.851562 458.253906 C 116.816406 449.589844 116.167969 444.160156 122.25 437.046875 C 128.199219 429.933594 135.828125 423.988281 135.828125 417.523438 C 135.957031 411.054688 138.804688 401.875 128.972656 399.160156 Z M 128.972656 399.160156 " fill-opacity="1" fill-rule="nonzero"/><path fill="#3d63ac" d="M 229.726562 41.5 C 235.675781 35.035156 234.125 31.675781 242.273438 28.441406 C 250.421875 25.210938 248.222656 20.8125 247.1875 14.347656 C 246.152344 7.753906 247.1875 10.597656 250.421875 8.398438 C 253.652344 6.203125 258.566406 4.648438 266.199219 4.003906 C 273.828125 3.484375 266.714844 0.769531 266.714844 -2.460938 C 266.714844 -5.695312 261.285156 -5.175781 253.652344 -4.144531 C 246.023438 -3.109375 247.1875 -4.144531 241.625 -6.339844 C 236.191406 -8.539062 204.117188 -8.539062 195.839844 -8.539062 C 187.691406 -8.539062 172.949219 -6.859375 165.316406 -6.339844 C 157.6875 -5.824219 158.203125 -6.339844 143.589844 -8.023438 C 128.84375 -9.703125 90.300781 -8.539062 76.074219 -6.988281 C 61.976562 -5.308594 51.628906 -3.753906 42.316406 2.324219 C 33.003906 8.269531 27.054688 6.070312 16.710938 7.234375 C 6.363281 8.269531 5.328125 8.269531 0.414062 8.269531 C -4.5 8.269531 -3.984375 5.554688 -12.648438 8.789062 C -21.316406 12.019531 -18.597656 14.21875 -21.960938 9.820312 C -25.195312 5.425781 -29.59375 9.820312 -44.855469 13.570312 C -60.117188 17.320312 -39.421875 21.71875 -34.507812 23.398438 C -34.507812 23.398438 -24.160156 22.882812 -18.210938 21.199219 C -12.261719 19.519531 -9.546875 23.398438 -5.664062 22.234375 C -1.914062 21.199219 -0.75 17.320312 20.976562 12.40625 C 42.707031 7.496094 57.96875 11.375 66.761719 15.125 C 75.429688 18.875 75.429688 16.804688 83.058594 11.890625 C 90.691406 6.976562 103.753906 3.226562 117.332031 1.03125 C 130.914062 -1.167969 122.246094 3.746094 113.582031 6.976562 C 104.917969 10.210938 97.285156 9.175781 98.839844 14.605469 C 100.519531 20.039062 117.332031 18.355469 122.246094 18.355469 C 127.164062 18.355469 127.679688 25.984375 128.195312 30.382812 C 128.714844 34.777344 127.679688 36.976562 128.714844 41.242188 C 129.75 45.640625 132.464844 44.992188 127.679688 49.390625 C 122.765625 53.785156 120.050781 53.140625 120.050781 60.769531 C 120.050781 68.398438 123.28125 76.542969 130.914062 81.972656 C 138.542969 87.40625 142.941406 87.921875 147.210938 79.257812 C 151.605469 70.59375 161.953125 65.164062 167.386719 62.449219 C 172.816406 59.734375 180.449219 62.449219 187.5625 55.984375 C 194.675781 49.519531 203.859375 52.234375 214.207031 48.871094 C 224.8125 45.898438 223.648438 48.097656 229.726562 41.5 Z M 229.726562 41.5 " fill-opacity="1" fill-rule="nonzero"/><path fill="#3d63ac" d="M 240.589844 54.042969 C 224.292969 56.242188 209.03125 50.8125 211.75 59.476562 C 214.464844 68.140625 214.980469 81.199219 223.777344 78.484375 C 238.78125 73.828125 255.335938 71.371094 251.585938 64.390625 C 247.574219 57.277344 256.886719 51.847656 240.589844 54.042969 Z M 240.589844 54.042969 " fill-opacity="1" fill-rule="nonzero"/><g clip-path="url(#id4)"><path fill="#f9a72b" d="M 306.402344 140.867188 C 306.402344 143.101562 302.125 144.90625 296.847656 144.90625 C 291.566406 144.90625 287.289062 143.101562 287.289062 140.867188 C 287.289062 138.640625 291.566406 136.832031 296.847656 136.832031 C 302.125 136.832031 306.402344 138.640625 306.402344 140.867188 " fill-opacity="1" fill-rule="nonzero"/></g><path fill="#a3c218" d="M 306.207031 139.890625 C 306.207031 142.121094 301.972656 143.929688 296.75 143.929688 C 291.523438 143.929688 287.289062 142.121094 287.289062 139.890625 C 287.289062 137.660156 291.523438 135.851562 296.75 135.851562 C 301.972656 135.851562 306.207031 137.660156 306.207031 139.890625 " fill-opacity="1" fill-rule="nonzero"/><g clip-path="url(#id5)"><path fill="#1c2120" d="M 297.113281 73.074219 C 296.988281 73.074219 296.863281 73.082031 296.738281 73.085938 C 296.613281 73.082031 296.488281 73.074219 296.363281 73.074219 C 284.757812 73.074219 275.351562 82.777344 275.351562 94.746094 C 275.351562 96.789062 276.152344 101.511719 277.355469 103.472656 L 296.738281 139.890625 L 316.117188 103.472656 C 317.320312 101.511719 318.121094 96.789062 318.121094 94.746094 C 318.121094 82.777344 308.714844 73.074219 297.113281 73.074219 " fill-opacity="1" fill-rule="nonzero"/></g><path fill="#a3c218" d="M 308.339844 92.332031 C 308.339844 98.671875 303.144531 103.8125 296.738281 103.8125 C 290.328125 103.8125 285.132812 98.671875 285.132812 92.332031 C 285.132812 85.992188 290.328125 80.851562 296.738281 80.851562 C 303.144531 80.851562 308.339844 85.992188 308.339844 92.332031 " fill-opacity="1" fill-rule="nonzero"/><g clip-path="url(#id6)"><path fill="#f9a72b" d="M 332.929688 207.003906 C 332.929688 209.234375 328.652344 211.042969 323.375 211.042969 C 318.09375 211.042969 313.816406 209.234375 313.816406 207.003906 C 313.816406 204.773438 318.09375 202.964844 323.375 202.964844 C 328.652344 202.964844 332.929688 204.773438 332.929688 207.003906 " fill-opacity="1" fill-rule="nonzero"/></g><path fill="#a3c218" d="M 332.734375 206.027344 C 332.734375 208.257812 328.5 210.066406 323.277344 210.066406 C 318.050781 210.066406 313.816406 208.257812 313.816406 206.027344 C 313.816406 203.796875 318.050781 201.988281 323.277344 201.988281 C 328.5 201.988281 332.734375 203.796875 332.734375 206.027344 " fill-opacity="1" fill-rule="nonzero"/><g clip-path="url(#id7)"><path fill="#1c2120" d="M 323.640625 139.210938 C 323.515625 139.210938 323.390625 139.21875 323.265625 139.21875 C 323.140625 139.21875 323.015625 139.210938 322.890625 139.210938 C 311.285156 139.210938 301.878906 148.914062 301.878906 160.882812 C 301.878906 162.925781 302.679688 167.648438 303.882812 169.605469 L 323.265625 206.027344 L 342.648438 169.605469 C 343.847656 167.648438 344.648438 162.925781 344.648438 160.882812 C 344.648438 148.914062 335.246094 139.210938 323.640625 139.210938 " fill-opacity="1" fill-rule="nonzero"/></g><path fill="#a3c218" d="M 334.867188 158.46875 C 334.867188 164.808594 329.671875 169.949219 323.265625 169.949219 C 316.855469 169.949219 311.660156 164.808594 311.660156 158.46875 C 311.660156 152.125 316.855469 146.988281 323.265625 146.988281 C 329.671875 146.988281 334.867188 152.125 334.867188 158.46875 " fill-opacity="1" fill-rule="nonzero"/><g clip-path="url(#id8)"><path fill="#f9a72b" d="M 474.890625 261.851562 C 474.890625 264.082031 470.613281 265.890625 465.335938 265.890625 C 460.058594 265.890625 455.777344 264.082031 455.777344 261.851562 C 455.777344 259.625 460.058594 257.8125 465.335938 257.8125 C 470.613281 257.8125 474.890625 259.625 474.890625 261.851562 " fill-opacity="1" fill-rule="nonzero"/></g><path fill="#a3c218" d="M 474.695312 260.875 C 474.695312 263.105469 470.460938 264.914062 465.238281 264.914062 C 460.011719 264.914062 455.777344 263.105469 455.777344 260.875 C 455.777344 258.644531 460.011719 256.835938 465.238281 256.835938 C 470.460938 256.835938 474.695312 258.644531 474.695312 260.875 " fill-opacity="1" fill-rule="nonzero"/><g clip-path="url(#id9)"><path fill="#1c2120" d="M 465.601562 194.058594 C 465.476562 194.058594 465.351562 194.066406 465.226562 194.070312 C 465.101562 194.066406 464.976562 194.058594 464.851562 194.058594 C 453.25 194.058594 443.839844 203.761719 443.839844 215.730469 C 443.839844 217.773438 444.640625 222.496094 445.84375 224.457031 L 465.226562 260.875 L 484.609375 224.457031 C 485.808594 222.496094 486.609375 217.773438 486.609375 215.730469 C 486.609375 203.761719 477.207031 194.058594 465.601562 194.058594 " fill-opacity="1" fill-rule="nonzero"/></g><path fill="#a3c218" d="M 476.828125 213.316406 C 476.828125 219.65625 471.632812 224.796875 465.226562 224.796875 C 458.820312 224.796875 453.621094 219.65625 453.621094 213.316406 C 453.621094 206.976562 458.820312 201.835938 465.226562 201.835938 C 471.632812 201.835938 476.828125 206.976562 476.828125 213.316406 " fill-opacity="1" fill-rule="nonzero"/><g clip-path="url(#id10)"><path fill="#f9a72b" d="M 539.058594 268.675781 C 539.058594 270.910156 534.777344 272.714844 529.5 272.714844 C 524.222656 272.714844 519.945312 270.910156 519.945312 268.675781 C 519.945312 266.449219 524.222656 264.640625 529.5 264.640625 C 534.777344 264.640625 539.058594 266.449219 539.058594 268.675781 " fill-opacity="1" fill-rule="nonzero"/></g><path fill="#a3c218" d="M 538.863281 267.699219 C 538.863281 269.929688 534.628906 271.738281 529.402344 271.738281 C 524.179688 271.738281 519.945312 269.929688 519.945312 267.699219 C 519.945312 265.46875 524.179688 263.660156 529.402344 263.660156 C 534.628906 263.660156 538.863281 265.46875 538.863281 267.699219 " fill-opacity="1" fill-rule="nonzero"/><g clip-path="url(#id11)"><path fill="#1c2120" d="M 529.769531 200.882812 C 529.640625 200.882812 529.519531 200.890625 529.394531 200.894531 C 529.265625 200.890625 529.144531 200.882812 529.015625 200.882812 C 517.414062 200.882812 508.007812 210.585938 508.007812 222.554688 C 508.007812 224.597656 508.808594 229.320312 510.011719 231.28125 L 529.394531 267.699219 L 548.773438 231.28125 C 549.976562 229.320312 550.777344 224.597656 550.777344 222.554688 C 550.777344 210.585938 541.371094 200.882812 529.769531 200.882812 " fill-opacity="1" fill-rule="nonzero"/></g><path fill="#a3c218" d="M 540.996094 220.140625 C 540.996094 226.480469 535.800781 231.621094 529.394531 231.621094 C 522.984375 231.621094 517.789062 226.480469 517.789062 220.140625 C 517.789062 213.800781 522.984375 208.660156 529.394531 208.660156 C 535.800781 208.660156 540.996094 213.800781 540.996094 220.140625 " fill-opacity="1" fill-rule="nonzero"/><g clip-path="url(#id12)"><path fill="#f9a72b" d="M 268.46875 215.179688 C 268.46875 217.410156 264.191406 219.21875 258.910156 219.21875 C 253.632812 219.21875 249.355469 217.410156 249.355469 215.179688 C 249.355469 212.949219 253.632812 211.140625 258.910156 211.140625 C 264.191406 211.140625 268.46875 212.949219 268.46875 215.179688 " fill-opacity="1" fill-rule="nonzero"/></g><path fill="#a3c218" d="M 268.273438 214.203125 C 268.273438 216.433594 264.039062 218.238281 258.8125 218.238281 C 253.589844 218.238281 249.355469 216.433594 249.355469 214.203125 C 249.355469 211.96875 253.589844 210.164062 258.8125 210.164062 C 264.039062 210.164062 268.273438 211.96875 268.273438 214.203125 " fill-opacity="1" fill-rule="nonzero"/><g clip-path="url(#id13)"><path fill="#1c2120" d="M 259.179688 147.386719 C 259.050781 147.386719 258.929688 147.394531 258.804688 147.394531 C 258.679688 147.394531 258.554688 147.386719 258.425781 147.386719 C 246.824219 147.386719 237.417969 157.089844 237.417969 169.058594 C 237.417969 171.097656 238.21875 175.820312 239.421875 177.78125 L 258.804688 214.203125 L 278.183594 177.78125 C 279.386719 175.820312 280.1875 171.097656 280.1875 169.058594 C 280.1875 157.089844 270.78125 147.386719 259.179688 147.386719 " fill-opacity="1" fill-rule="nonzero"/></g><path fill="#a3c218" d="M 270.40625 166.640625 C 270.40625 172.984375 265.210938 178.121094 258.804688 178.121094 C 252.394531 178.121094 247.199219 172.984375 247.199219 166.640625 C 247.199219 160.300781 252.394531 155.160156 258.804688 155.160156 C 265.210938 155.160156 270.40625 160.300781 270.40625 166.640625 " fill-opacity="1" fill-rule="nonzero"/><path fill="#f9a72b" d="M 238.703125 292.878906 C 238.703125 295.109375 234.425781 296.917969 229.148438 296.917969 C 223.871094 296.917969 219.589844 295.109375 219.589844 292.878906 C 219.589844 290.648438 223.871094 288.839844 229.148438 288.839844 C 234.425781 288.839844 238.703125 290.648438 238.703125 292.878906 " fill-opacity="1" fill-rule="nonzero"/><path fill="#a3c218" d="M 238.507812 291.898438 C 238.507812 294.128906 234.273438 295.9375 229.050781 295.9375 C 223.824219 295.9375 219.589844 294.128906 219.589844 291.898438 C 219.589844 289.667969 223.824219 287.859375 229.050781 287.859375 C 234.273438 287.859375 238.507812 289.667969 238.507812 291.898438 " fill-opacity="1" fill-rule="nonzero"/><g clip-path="url(#id14)"><path fill="#1c2120" d="M 229.414062 225.082031 C 229.289062 225.082031 229.164062 225.089844 229.039062 225.09375 C 228.914062 225.089844 228.789062 225.082031 228.664062 225.082031 C 217.0625 225.082031 207.652344 234.785156 207.652344 246.753906 C 207.652344 248.796875 208.453125 253.519531 209.65625 255.480469 L 229.039062 291.898438 L 248.421875 255.480469 C 249.621094 253.519531 250.421875 248.796875 250.421875 246.753906 C 250.421875 234.785156 241.019531 225.082031 229.414062 225.082031 " fill-opacity="1" fill-rule="nonzero"/></g><path fill="#a3c218" d="M 240.640625 244.339844 C 240.640625 250.679688 235.445312 255.820312 229.039062 255.820312 C 222.632812 255.820312 217.433594 250.679688 217.433594 244.339844 C 217.433594 238 222.632812 232.859375 229.039062 232.859375 C 235.445312 232.859375 240.640625 238 240.640625 244.339844 " fill-opacity="1" fill-rule="nonzero"/><path fill="#a3c218" d="M 106.859375 168.925781 L 222.691406 168.925781 C 224.613281 168.925781 226.457031 169.6875 227.816406 171.046875 C 229.175781 172.402344 229.941406 174.242188 229.941406 176.164062 L 229.941406 190.636719 C 229.941406 192.558594 229.175781 194.398438 227.816406 195.753906 C 226.457031 197.113281 224.613281 197.875 222.691406 197.875 L 106.859375 197.875 C 102.855469 197.875 99.609375 194.636719 99.609375 190.636719 L 99.609375 176.164062 C 99.609375 172.164062 102.855469 168.925781 106.859375 168.925781 " fill-opacity="1" fill-rule="nonzero"/><g fill="#1c2120" fill-opacity="1"><g transform="translate(106.820586, 189.775548)"><g><path d="M 12.28125 0 L 12.234375 -5.734375 L 9.5 -1.140625 L 7.625 -1.140625 L 4.890625 -5.546875 L 4.890625 0 L 1.03125 0 L 1.03125 -12.59375 L 4.515625 -12.59375 L 8.625 -5.890625 L 12.625 -12.59375 L 16.109375 -12.59375 L 16.140625 0 Z M 12.28125 0 "/></g></g></g><g fill="#1c2120" fill-opacity="1"><g transform="translate(125.781438, 189.775548)"><g><path d="M 7.625 0.28125 C 6.269531 0.28125 5.050781 0 3.96875 -0.5625 C 2.894531 -1.125 2.050781 -1.90625 1.4375 -2.90625 C 0.820312 -3.90625 0.515625 -5.035156 0.515625 -6.296875 C 0.515625 -7.554688 0.820312 -8.6875 1.4375 -9.6875 C 2.050781 -10.695312 2.894531 -11.484375 3.96875 -12.046875 C 5.050781 -12.609375 6.269531 -12.890625 7.625 -12.890625 C 8.988281 -12.890625 10.207031 -12.609375 11.28125 -12.046875 C 12.363281 -11.484375 13.207031 -10.695312 13.8125 -9.6875 C 14.425781 -8.6875 14.734375 -7.554688 14.734375 -6.296875 C 14.734375 -5.035156 14.425781 -3.90625 13.8125 -2.90625 C 13.207031 -1.90625 12.363281 -1.125 11.28125 -0.5625 C 10.207031 0 8.988281 0.28125 7.625 0.28125 Z M 7.625 -3.15625 C 8.15625 -3.15625 8.632812 -3.28125 9.0625 -3.53125 C 9.488281 -3.789062 9.828125 -4.15625 10.078125 -4.625 C 10.328125 -5.101562 10.453125 -5.660156 10.453125 -6.296875 C 10.453125 -6.929688 10.328125 -7.484375 10.078125 -7.953125 C 9.828125 -8.429688 9.488281 -8.800781 9.0625 -9.0625 C 8.632812 -9.320312 8.15625 -9.453125 7.625 -9.453125 C 7.101562 -9.453125 6.628906 -9.320312 6.203125 -9.0625 C 5.773438 -8.800781 5.4375 -8.429688 5.1875 -7.953125 C 4.9375 -7.484375 4.8125 -6.929688 4.8125 -6.296875 C 4.8125 -5.660156 4.9375 -5.101562 5.1875 -4.625 C 5.4375 -4.15625 5.773438 -3.789062 6.203125 -3.53125 C 6.628906 -3.28125 7.101562 -3.15625 7.625 -3.15625 Z M 7.625 -3.15625 "/></g></g></g><g fill="#1c2120" fill-opacity="1"><g transform="translate(142.835534, 189.775548)"><g><path d="M 6.421875 -3.171875 L 5.28125 -3.171875 L 5.28125 0 L 1.03125 0 L 1.03125 -12.59375 L 7.09375 -12.59375 C 8.257812 -12.59375 9.273438 -12.398438 10.140625 -12.015625 C 11.003906 -11.640625 11.664062 -11.085938 12.125 -10.359375 C 12.59375 -9.640625 12.828125 -8.800781 12.828125 -7.84375 C 12.828125 -6.945312 12.625 -6.160156 12.21875 -5.484375 C 11.8125 -4.816406 11.222656 -4.285156 10.453125 -3.890625 L 13.109375 0 L 8.5625 0 Z M 8.546875 -7.84375 C 8.546875 -8.3125 8.398438 -8.675781 8.109375 -8.9375 C 7.828125 -9.195312 7.398438 -9.328125 6.828125 -9.328125 L 5.28125 -9.328125 L 5.28125 -6.375 L 6.828125 -6.375 C 7.398438 -6.375 7.828125 -6.5 8.109375 -6.75 C 8.398438 -7.007812 8.546875 -7.375 8.546875 -7.84375 Z M 8.546875 -7.84375 "/></g></g></g><g fill="#1c2120" fill-opacity="1"><g transform="translate(158.036828, 189.775548)"><g><path d="M 7.625 0.28125 C 6.269531 0.28125 5.050781 0 3.96875 -0.5625 C 2.894531 -1.125 2.050781 -1.90625 1.4375 -2.90625 C 0.820312 -3.90625 0.515625 -5.035156 0.515625 -6.296875 C 0.515625 -7.554688 0.820312 -8.6875 1.4375 -9.6875 C 2.050781 -10.695312 2.894531 -11.484375 3.96875 -12.046875 C 5.050781 -12.609375 6.269531 -12.890625 7.625 -12.890625 C 8.988281 -12.890625 10.207031 -12.609375 11.28125 -12.046875 C 12.363281 -11.484375 13.207031 -10.695312 13.8125 -9.6875 C 14.425781 -8.6875 14.734375 -7.554688 14.734375 -6.296875 C 14.734375 -5.035156 14.425781 -3.90625 13.8125 -2.90625 C 13.207031 -1.90625 12.363281 -1.125 11.28125 -0.5625 C 10.207031 0 8.988281 0.28125 7.625 0.28125 Z M 7.625 -3.15625 C 8.15625 -3.15625 8.632812 -3.28125 9.0625 -3.53125 C 9.488281 -3.789062 9.828125 -4.15625 10.078125 -4.625 C 10.328125 -5.101562 10.453125 -5.660156 10.453125 -6.296875 C 10.453125 -6.929688 10.328125 -7.484375 10.078125 -7.953125 C 9.828125 -8.429688 9.488281 -8.800781 9.0625 -9.0625 C 8.632812 -9.320312 8.15625 -9.453125 7.625 -9.453125 C 7.101562 -9.453125 6.628906 -9.320312 6.203125 -9.0625 C 5.773438 -8.800781 5.4375 -8.429688 5.1875 -7.953125 C 4.9375 -7.484375 4.8125 -6.929688 4.8125 -6.296875 C 4.8125 -5.660156 4.9375 -5.101562 5.1875 -4.625 C 5.4375 -4.15625 5.773438 -3.789062 6.203125 -3.53125 C 6.628906 -3.28125 7.101562 -3.15625 7.625 -3.15625 Z M 7.625 -3.15625 "/></g></g></g><g fill="#1c2120" fill-opacity="1"><g transform="translate(175.090927, 189.775548)"><g><path d="M 7.546875 0.28125 C 6.210938 0.28125 5.007812 0.00390625 3.9375 -0.546875 C 2.875 -1.109375 2.035156 -1.890625 1.421875 -2.890625 C 0.816406 -3.890625 0.515625 -5.023438 0.515625 -6.296875 C 0.515625 -7.566406 0.816406 -8.703125 1.421875 -9.703125 C 2.035156 -10.710938 2.875 -11.492188 3.9375 -12.046875 C 5.007812 -12.609375 6.210938 -12.890625 7.546875 -12.890625 C 8.765625 -12.890625 9.851562 -12.671875 10.8125 -12.234375 C 11.78125 -11.804688 12.570312 -11.1875 13.1875 -10.375 L 10.515625 -7.96875 C 9.734375 -8.957031 8.816406 -9.453125 7.765625 -9.453125 C 6.867188 -9.453125 6.148438 -9.164062 5.609375 -8.59375 C 5.078125 -8.019531 4.8125 -7.253906 4.8125 -6.296875 C 4.8125 -5.335938 5.078125 -4.570312 5.609375 -4 C 6.148438 -3.4375 6.867188 -3.15625 7.765625 -3.15625 C 8.816406 -3.15625 9.734375 -3.644531 10.515625 -4.625 L 13.1875 -2.234375 C 12.570312 -1.421875 11.78125 -0.796875 10.8125 -0.359375 C 9.851562 0.0664062 8.765625 0.28125 7.546875 0.28125 Z M 7.546875 0.28125 "/></g></g></g><g fill="#1c2120" fill-opacity="1"><g transform="translate(190.274237, 189.775548)"><g><path d="M 7.546875 0.28125 C 6.210938 0.28125 5.007812 0.00390625 3.9375 -0.546875 C 2.875 -1.109375 2.035156 -1.890625 1.421875 -2.890625 C 0.816406 -3.890625 0.515625 -5.023438 0.515625 -6.296875 C 0.515625 -7.566406 0.816406 -8.703125 1.421875 -9.703125 C 2.035156 -10.710938 2.875 -11.492188 3.9375 -12.046875 C 5.007812 -12.609375 6.210938 -12.890625 7.546875 -12.890625 C 8.765625 -12.890625 9.851562 -12.671875 10.8125 -12.234375 C 11.78125 -11.804688 12.570312 -11.1875 13.1875 -10.375 L 10.515625 -7.96875 C 9.734375 -8.957031 8.816406 -9.453125 7.765625 -9.453125 C 6.867188 -9.453125 6.148438 -9.164062 5.609375 -8.59375 C 5.078125 -8.019531 4.8125 -7.253906 4.8125 -6.296875 C 4.8125 -5.335938 5.078125 -4.570312 5.609375 -4 C 6.148438 -3.4375 6.867188 -3.15625 7.765625 -3.15625 C 8.816406 -3.15625 9.734375 -3.644531 10.515625 -4.625 L 13.1875 -2.234375 C 12.570312 -1.421875 11.78125 -0.796875 10.8125 -0.359375 C 9.851562 0.0664062 8.765625 0.28125 7.546875 0.28125 Z M 7.546875 0.28125 "/></g></g></g><g fill="#1c2120" fill-opacity="1"><g transform="translate(205.457547, 189.775548)"><g><path d="M 7.625 0.28125 C 6.269531 0.28125 5.050781 0 3.96875 -0.5625 C 2.894531 -1.125 2.050781 -1.90625 1.4375 -2.90625 C 0.820312 -3.90625 0.515625 -5.035156 0.515625 -6.296875 C 0.515625 -7.554688 0.820312 -8.6875 1.4375 -9.6875 C 2.050781 -10.695312 2.894531 -11.484375 3.96875 -12.046875 C 5.050781 -12.609375 6.269531 -12.890625 7.625 -12.890625 C 8.988281 -12.890625 10.207031 -12.609375 11.28125 -12.046875 C 12.363281 -11.484375 13.207031 -10.695312 13.8125 -9.6875 C 14.425781 -8.6875 14.734375 -7.554688 14.734375 -6.296875 C 14.734375 -5.035156 14.425781 -3.90625 13.8125 -2.90625 C 13.207031 -1.90625 12.363281 -1.125 11.28125 -0.5625 C 10.207031 0 8.988281 0.28125 7.625 0.28125 Z M 7.625 -3.15625 C 8.15625 -3.15625 8.632812 -3.28125 9.0625 -3.53125 C 9.488281 -3.789062 9.828125 -4.15625 10.078125 -4.625 C 10.328125 -5.101562 10.453125 -5.660156 10.453125 -6.296875 C 10.453125 -6.929688 10.328125 -7.484375 10.078125 -7.953125 C 9.828125 -8.429688 9.488281 -8.800781 9.0625 -9.0625 C 8.632812 -9.320312 8.15625 -9.453125 7.625 -9.453125 C 7.101562 -9.453125 6.628906 -9.320312 6.203125 -9.0625 C 5.773438 -8.800781 5.4375 -8.429688 5.1875 -7.953125 C 4.9375 -7.484375 4.8125 -6.929688 4.8125 -6.296875 C 4.8125 -5.660156 4.9375 -5.101562 5.1875 -4.625 C 5.4375 -4.15625 5.773438 -3.789062 6.203125 -3.53125 C 6.628906 -3.28125 7.101562 -3.15625 7.625 -3.15625 Z M 7.625 -3.15625 "/></g></g></g><path fill="#a3c218" d="M 92.207031 251.699219 L 194.960938 251.699219 C 196.882812 251.699219 198.730469 252.460938 200.089844 253.816406 C 201.449219 255.175781 202.214844 257.015625 202.214844 258.9375 L 202.214844 273.410156 C 202.214844 275.332031 201.449219 277.171875 200.089844 278.527344 C 198.730469 279.886719 196.882812 280.648438 194.960938 280.648438 L 92.207031 280.648438 C 88.199219 280.648438 84.953125 277.40625 84.953125 273.410156 L 84.953125 258.9375 C 84.953125 254.9375 88.199219 251.699219 92.207031 251.699219 " fill-opacity="1" fill-rule="nonzero"/><g fill="#1c2120" fill-opacity="1"><g transform="translate(92.170106, 272.548455)"><g><path d="M 5.71875 0.28125 C 4.675781 0.28125 3.660156 0.164062 2.671875 -0.0625 C 1.679688 -0.289062 0.867188 -0.609375 0.234375 -1.015625 L 1.609375 -4.109375 C 2.203125 -3.753906 2.867188 -3.472656 3.609375 -3.265625 C 4.359375 -3.054688 5.078125 -2.953125 5.765625 -2.953125 C 6.347656 -2.953125 6.765625 -3.007812 7.015625 -3.125 C 7.265625 -3.238281 7.390625 -3.410156 7.390625 -3.640625 C 7.390625 -3.898438 7.222656 -4.09375 6.890625 -4.21875 C 6.566406 -4.351562 6.03125 -4.5 5.28125 -4.65625 C 4.300781 -4.863281 3.488281 -5.082031 2.84375 -5.3125 C 2.195312 -5.550781 1.632812 -5.9375 1.15625 -6.46875 C 0.675781 -7 0.4375 -7.722656 0.4375 -8.640625 C 0.4375 -9.429688 0.65625 -10.148438 1.09375 -10.796875 C 1.539062 -11.441406 2.203125 -11.953125 3.078125 -12.328125 C 3.960938 -12.703125 5.035156 -12.890625 6.296875 -12.890625 C 7.160156 -12.890625 8.007812 -12.796875 8.84375 -12.609375 C 9.675781 -12.421875 10.410156 -12.148438 11.046875 -11.796875 L 9.78125 -8.71875 C 8.539062 -9.332031 7.367188 -9.640625 6.265625 -9.640625 C 5.171875 -9.640625 4.625 -9.378906 4.625 -8.859375 C 4.625 -8.609375 4.785156 -8.414062 5.109375 -8.28125 C 5.429688 -8.15625 5.96875 -8.023438 6.71875 -7.890625 C 7.675781 -7.703125 8.484375 -7.488281 9.140625 -7.25 C 9.804688 -7.019531 10.378906 -6.640625 10.859375 -6.109375 C 11.347656 -5.585938 11.59375 -4.867188 11.59375 -3.953125 C 11.59375 -3.160156 11.367188 -2.441406 10.921875 -1.796875 C 10.484375 -1.160156 9.820312 -0.65625 8.9375 -0.28125 C 8.050781 0.09375 6.976562 0.28125 5.71875 0.28125 Z M 5.71875 0.28125 "/></g></g></g><g fill="#1c2120" fill-opacity="1"><g transform="translate(105.796074, 272.548455)"><g><path d="M 11.5 -3.203125 L 11.5 0 L 1.03125 0 L 1.03125 -12.59375 L 11.265625 -12.59375 L 11.265625 -9.390625 L 5.203125 -9.390625 L 5.203125 -7.921875 L 10.53125 -7.921875 L 10.53125 -4.859375 L 5.203125 -4.859375 L 5.203125 -3.203125 Z M 11.5 -3.203125 "/></g></g></g><g fill="#1c2120" fill-opacity="1"><g transform="translate(119.710033, 272.548455)"><g><path d="M 13.453125 -12.59375 L 13.453125 0 L 9.953125 0 L 5.171875 -5.71875 L 5.171875 0 L 1.03125 0 L 1.03125 -12.59375 L 4.515625 -12.59375 L 9.3125 -6.875 L 9.3125 -12.59375 Z M 13.453125 -12.59375 "/></g></g></g><g fill="#1c2120" fill-opacity="1"><g transform="translate(135.981989, 272.548455)"><g><path d="M 11.5 -3.203125 L 11.5 0 L 1.03125 0 L 1.03125 -12.59375 L 11.265625 -12.59375 L 11.265625 -9.390625 L 5.203125 -9.390625 L 5.203125 -7.921875 L 10.53125 -7.921875 L 10.53125 -4.859375 L 5.203125 -4.859375 L 5.203125 -3.203125 Z M 11.5 -3.203125 "/></g></g></g><g fill="#1c2120" fill-opacity="1"><g transform="translate(149.895949, 272.548455)"><g><path d="M 9.359375 -6.640625 L 13.046875 -6.640625 L 13.046875 -1.3125 C 12.304688 -0.800781 11.441406 -0.40625 10.453125 -0.125 C 9.472656 0.144531 8.507812 0.28125 7.5625 0.28125 C 6.21875 0.28125 5.007812 0.00390625 3.9375 -0.546875 C 2.875 -1.109375 2.035156 -1.890625 1.421875 -2.890625 C 0.816406 -3.890625 0.515625 -5.023438 0.515625 -6.296875 C 0.515625 -7.566406 0.816406 -8.703125 1.421875 -9.703125 C 2.035156 -10.710938 2.882812 -11.492188 3.96875 -12.046875 C 5.050781 -12.609375 6.28125 -12.890625 7.65625 -12.890625 C 8.882812 -12.890625 9.988281 -12.679688 10.96875 -12.265625 C 11.945312 -11.847656 12.757812 -11.242188 13.40625 -10.453125 L 10.6875 -8.0625 C 9.894531 -8.988281 8.953125 -9.453125 7.859375 -9.453125 C 6.929688 -9.453125 6.191406 -9.171875 5.640625 -8.609375 C 5.085938 -8.046875 4.8125 -7.273438 4.8125 -6.296875 C 4.8125 -5.347656 5.082031 -4.585938 5.625 -4.015625 C 6.164062 -3.441406 6.894531 -3.15625 7.8125 -3.15625 C 8.351562 -3.15625 8.867188 -3.253906 9.359375 -3.453125 Z M 9.359375 -6.640625 "/></g></g></g><g fill="#1c2120" fill-opacity="1"><g transform="translate(165.53791, 272.548455)"><g><path d="M 9.609375 -2.203125 L 4.828125 -2.203125 L 3.984375 0 L -0.34375 0 L 5.171875 -12.59375 L 9.34375 -12.59375 L 14.84375 0 L 10.453125 0 Z M 8.4375 -5.25 L 7.21875 -8.421875 L 6 -5.25 Z M 8.4375 -5.25 "/></g></g></g><g fill="#1c2120" fill-opacity="1"><g transform="translate(181.845871, 272.548455)"><g><path d="M 1.03125 -12.59375 L 5.28125 -12.59375 L 5.28125 -3.296875 L 10.96875 -3.296875 L 10.96875 0 L 1.03125 0 Z M 1.03125 -12.59375 "/></g></g></g><path fill="#a3c218" d="M 274.492188 222.425781 L 366.527344 222.425781 C 368.449219 222.425781 370.296875 223.1875 371.65625 224.542969 C 373.015625 225.902344 373.78125 227.742188 373.78125 229.660156 L 373.78125 244.136719 C 373.78125 246.054688 373.015625 247.898438 371.65625 249.253906 C 370.296875 250.613281 368.449219 251.375 366.527344 251.375 L 274.492188 251.375 C 270.488281 251.375 267.238281 248.132812 267.238281 244.136719 L 267.238281 229.660156 C 267.238281 225.664062 270.488281 222.425781 274.492188 222.425781 " fill-opacity="1" fill-rule="nonzero"/><g fill="#1c2120" fill-opacity="1"><g transform="translate(274.455374, 243.274507)"><g><path d="M 3.765625 -9.3125 L 0.078125 -9.3125 L 0.078125 -12.59375 L 11.703125 -12.59375 L 11.703125 -9.3125 L 8.015625 -9.3125 L 8.015625 0 L 3.765625 0 Z M 3.765625 -9.3125 "/></g></g></g><g fill="#1c2120" fill-opacity="1"><g transform="translate(288.027338, 243.274507)"><g><path d="M 7.0625 0.28125 C 5.125 0.28125 3.613281 -0.238281 2.53125 -1.28125 C 1.457031 -2.320312 0.921875 -3.785156 0.921875 -5.671875 L 0.921875 -12.59375 L 5.171875 -12.59375 L 5.171875 -5.796875 C 5.171875 -4.867188 5.332031 -4.195312 5.65625 -3.78125 C 5.988281 -3.363281 6.46875 -3.15625 7.09375 -3.15625 C 7.71875 -3.15625 8.191406 -3.363281 8.515625 -3.78125 C 8.847656 -4.195312 9.015625 -4.867188 9.015625 -5.796875 L 9.015625 -12.59375 L 13.1875 -12.59375 L 13.1875 -5.671875 C 13.1875 -3.785156 12.644531 -2.320312 11.5625 -1.28125 C 10.488281 -0.238281 8.988281 0.28125 7.0625 0.28125 Z M 7.0625 0.28125 "/></g></g></g><g fill="#1c2120" fill-opacity="1"><g transform="translate(303.939298, 243.274507)"><g><path d="M 13.453125 -12.59375 L 13.453125 0 L 9.953125 0 L 5.171875 -5.71875 L 5.171875 0 L 1.03125 0 L 1.03125 -12.59375 L 4.515625 -12.59375 L 9.3125 -6.875 L 9.3125 -12.59375 Z M 13.453125 -12.59375 "/></g></g></g><g fill="#1c2120" fill-opacity="1"><g transform="translate(320.211253, 243.274507)"><g><path d="M 1.03125 -12.59375 L 5.28125 -12.59375 L 5.28125 0 L 1.03125 0 Z M 1.03125 -12.59375 "/></g></g></g><g fill="#1c2120" fill-opacity="1"><g transform="translate(328.311237, 243.274507)"><g><path d="M 5.71875 0.28125 C 4.675781 0.28125 3.660156 0.164062 2.671875 -0.0625 C 1.679688 -0.289062 0.867188 -0.609375 0.234375 -1.015625 L 1.609375 -4.109375 C 2.203125 -3.753906 2.867188 -3.472656 3.609375 -3.265625 C 4.359375 -3.054688 5.078125 -2.953125 5.765625 -2.953125 C 6.347656 -2.953125 6.765625 -3.007812 7.015625 -3.125 C 7.265625 -3.238281 7.390625 -3.410156 7.390625 -3.640625 C 7.390625 -3.898438 7.222656 -4.09375 6.890625 -4.21875 C 6.566406 -4.351562 6.03125 -4.5 5.28125 -4.65625 C 4.300781 -4.863281 3.488281 -5.082031 2.84375 -5.3125 C 2.195312 -5.550781 1.632812 -5.9375 1.15625 -6.46875 C 0.675781 -7 0.4375 -7.722656 0.4375 -8.640625 C 0.4375 -9.429688 0.65625 -10.148438 1.09375 -10.796875 C 1.539062 -11.441406 2.203125 -11.953125 3.078125 -12.328125 C 3.960938 -12.703125 5.035156 -12.890625 6.296875 -12.890625 C 7.160156 -12.890625 8.007812 -12.796875 8.84375 -12.609375 C 9.675781 -12.421875 10.410156 -12.148438 11.046875 -11.796875 L 9.78125 -8.71875 C 8.539062 -9.332031 7.367188 -9.640625 6.265625 -9.640625 C 5.171875 -9.640625 4.625 -9.378906 4.625 -8.859375 C 4.625 -8.609375 4.785156 -8.414062 5.109375 -8.28125 C 5.429688 -8.15625 5.96875 -8.023438 6.71875 -7.890625 C 7.675781 -7.703125 8.484375 -7.488281 9.140625 -7.25 C 9.804688 -7.019531 10.378906 -6.640625 10.859375 -6.109375 C 11.347656 -5.585938 11.59375 -4.867188 11.59375 -3.953125 C 11.59375 -3.160156 11.367188 -2.441406 10.921875 -1.796875 C 10.484375 -1.160156 9.820312 -0.65625 8.9375 -0.28125 C 8.050781 0.09375 6.976562 0.28125 5.71875 0.28125 Z M 5.71875 0.28125 "/></g></g></g><g fill="#1c2120" fill-opacity="1"><g transform="translate(341.937207, 243.274507)"><g><path d="M 1.03125 -12.59375 L 5.28125 -12.59375 L 5.28125 0 L 1.03125 0 Z M 1.03125 -12.59375 "/></g></g></g><g fill="#1c2120" fill-opacity="1"><g transform="translate(350.037192, 243.274507)"><g><path d="M 9.609375 -2.203125 L 4.828125 -2.203125 L 3.984375 0 L -0.34375 0 L 5.171875 -12.59375 L 9.34375 -12.59375 L 14.84375 0 L 10.453125 0 Z M 8.4375 -5.25 L 7.21875 -8.421875 L 6 -5.25 Z M 8.4375 -5.25 "/></g></g></g><path fill="#a3c218" d="M 251.464844 41.101562 L 341.734375 41.101562 C 343.652344 41.101562 345.496094 41.863281 346.851562 43.21875 C 348.210938 44.578125 348.972656 46.417969 348.972656 48.335938 L 348.972656 62.8125 C 348.972656 64.730469 348.210938 66.574219 346.851562 67.929688 C 345.496094 69.289062 343.652344 70.050781 341.734375 70.050781 L 251.464844 70.050781 C 247.464844 70.050781 244.222656 66.808594 244.222656 62.8125 L 244.222656 48.335938 C 244.222656 44.339844 247.464844 41.101562 251.464844 41.101562 " fill-opacity="1" fill-rule="nonzero"/><g fill="#1c2120" fill-opacity="1"><g transform="translate(252.322083, 61.949995)"><g><path d="M 5.28125 -9.390625 L 5.28125 -7.234375 L 10.53125 -7.234375 L 10.53125 -4.03125 L 5.28125 -4.03125 L 5.28125 0 L 1.03125 0 L 1.03125 -12.59375 L 11.265625 -12.59375 L 11.265625 -9.390625 Z M 5.28125 -9.390625 "/></g></g></g><g fill="#1c2120" fill-opacity="1"><g transform="translate(265.714043, 61.949995)"><g><path d="M 6.421875 -3.171875 L 5.28125 -3.171875 L 5.28125 0 L 1.03125 0 L 1.03125 -12.59375 L 7.09375 -12.59375 C 8.257812 -12.59375 9.273438 -12.398438 10.140625 -12.015625 C 11.003906 -11.640625 11.664062 -11.085938 12.125 -10.359375 C 12.59375 -9.640625 12.828125 -8.800781 12.828125 -7.84375 C 12.828125 -6.945312 12.625 -6.160156 12.21875 -5.484375 C 11.8125 -4.816406 11.222656 -4.285156 10.453125 -3.890625 L 13.109375 0 L 8.5625 0 Z M 8.546875 -7.84375 C 8.546875 -8.3125 8.398438 -8.675781 8.109375 -8.9375 C 7.828125 -9.195312 7.398438 -9.328125 6.828125 -9.328125 L 5.28125 -9.328125 L 5.28125 -6.375 L 6.828125 -6.375 C 7.398438 -6.375 7.828125 -6.5 8.109375 -6.75 C 8.398438 -7.007812 8.546875 -7.375 8.546875 -7.84375 Z M 8.546875 -7.84375 "/></g></g></g><g fill="#1c2120" fill-opacity="1"><g transform="translate(280.923999, 61.949995)"><g><path d="M 9.609375 -2.203125 L 4.828125 -2.203125 L 3.984375 0 L -0.34375 0 L 5.171875 -12.59375 L 9.34375 -12.59375 L 14.84375 0 L 10.453125 0 Z M 8.4375 -5.25 L 7.21875 -8.421875 L 6 -5.25 Z M 8.4375 -5.25 "/></g></g></g><g fill="#1c2120" fill-opacity="1"><g transform="translate(297.231957, 61.949995)"><g><path d="M 13.453125 -12.59375 L 13.453125 0 L 9.953125 0 L 5.171875 -5.71875 L 5.171875 0 L 1.03125 0 L 1.03125 -12.59375 L 4.515625 -12.59375 L 9.3125 -6.875 L 9.3125 -12.59375 Z M 13.453125 -12.59375 "/></g></g></g><g fill="#1c2120" fill-opacity="1"><g transform="translate(313.503915, 61.949995)"><g><path d="M 7.546875 0.28125 C 6.210938 0.28125 5.007812 0.00390625 3.9375 -0.546875 C 2.875 -1.109375 2.035156 -1.890625 1.421875 -2.890625 C 0.816406 -3.890625 0.515625 -5.023438 0.515625 -6.296875 C 0.515625 -7.566406 0.816406 -8.703125 1.421875 -9.703125 C 2.035156 -10.710938 2.875 -11.492188 3.9375 -12.046875 C 5.007812 -12.609375 6.210938 -12.890625 7.546875 -12.890625 C 8.765625 -12.890625 9.851562 -12.671875 10.8125 -12.234375 C 11.78125 -11.804688 12.570312 -11.1875 13.1875 -10.375 L 10.515625 -7.96875 C 9.734375 -8.957031 8.816406 -9.453125 7.765625 -9.453125 C 6.867188 -9.453125 6.148438 -9.164062 5.609375 -8.59375 C 5.078125 -8.019531 4.8125 -7.253906 4.8125 -6.296875 C 4.8125 -5.335938 5.078125 -4.570312 5.609375 -4 C 6.148438 -3.4375 6.867188 -3.15625 7.765625 -3.15625 C 8.816406 -3.15625 9.734375 -3.644531 10.515625 -4.625 L 13.1875 -2.234375 C 12.570312 -1.421875 11.78125 -0.796875 10.8125 -0.359375 C 9.851562 0.0664062 8.765625 0.28125 7.546875 0.28125 Z M 7.546875 0.28125 "/></g></g></g><g fill="#1c2120" fill-opacity="1"><g transform="translate(328.695871, 61.949995)"><g><path d="M 11.5 -3.203125 L 11.5 0 L 1.03125 0 L 1.03125 -12.59375 L 11.265625 -12.59375 L 11.265625 -9.390625 L 5.203125 -9.390625 L 5.203125 -7.921875 L 10.53125 -7.921875 L 10.53125 -4.859375 L 5.203125 -4.859375 L 5.203125 -3.203125 Z M 11.5 -3.203125 "/></g></g></g><path fill="#a3c218" d="M 507.304688 163.675781 L 553.558594 163.675781 C 557.574219 163.675781 560.828125 166.914062 560.828125 170.914062 L 560.828125 185.386719 C 560.828125 189.386719 557.574219 192.625 553.558594 192.625 L 507.304688 192.625 C 503.292969 192.625 500.039062 189.386719 500.039062 185.386719 L 500.039062 170.914062 C 500.039062 166.914062 503.292969 163.675781 507.304688 163.675781 " fill-opacity="1" fill-rule="nonzero"/><g fill="#1c2120" fill-opacity="1"><g transform="translate(507.267622, 184.525548)"><g><path d="M 7.0625 0.28125 C 5.125 0.28125 3.613281 -0.238281 2.53125 -1.28125 C 1.457031 -2.320312 0.921875 -3.785156 0.921875 -5.671875 L 0.921875 -12.59375 L 5.171875 -12.59375 L 5.171875 -5.796875 C 5.171875 -4.867188 5.332031 -4.195312 5.65625 -3.78125 C 5.988281 -3.363281 6.46875 -3.15625 7.09375 -3.15625 C 7.71875 -3.15625 8.191406 -3.363281 8.515625 -3.78125 C 8.847656 -4.195312 9.015625 -4.867188 9.015625 -5.796875 L 9.015625 -12.59375 L 13.1875 -12.59375 L 13.1875 -5.671875 C 13.1875 -3.785156 12.644531 -2.320312 11.5625 -1.28125 C 10.488281 -0.238281 8.988281 0.28125 7.0625 0.28125 Z M 7.0625 0.28125 "/></g></g></g><g fill="#1c2120" fill-opacity="1"><g transform="translate(523.179582, 184.525548)"><g><path d="M 9.609375 -2.203125 L 4.828125 -2.203125 L 3.984375 0 L -0.34375 0 L 5.171875 -12.59375 L 9.34375 -12.59375 L 14.84375 0 L 10.453125 0 Z M 8.4375 -5.25 L 7.21875 -8.421875 L 6 -5.25 Z M 8.4375 -5.25 "/></g></g></g><g fill="#1c2120" fill-opacity="1"><g transform="translate(539.487542, 184.525548)"><g><path d="M 11.5 -3.203125 L 11.5 0 L 1.03125 0 L 1.03125 -12.59375 L 11.265625 -12.59375 L 11.265625 -9.390625 L 5.203125 -9.390625 L 5.203125 -7.921875 L 10.53125 -7.921875 L 10.53125 -4.859375 L 5.203125 -4.859375 L 5.203125 -3.203125 Z M 11.5 -3.203125 "/></g></g></g><path fill="#a3c218" d="M 442.390625 273.75 L 488.007812 273.75 C 492.023438 273.75 495.277344 276.988281 495.277344 280.988281 L 495.277344 295.460938 C 495.277344 299.457031 492.023438 302.699219 488.007812 302.699219 L 442.390625 302.699219 C 438.375 302.699219 435.121094 299.457031 435.121094 295.460938 L 435.121094 280.988281 C 435.121094 276.988281 438.375 273.75 442.390625 273.75 " fill-opacity="1" fill-rule="nonzero"/><g fill="#1c2120" fill-opacity="1"><g transform="translate(442.351347, 294.599216)"><g><path d="M 6.15625 -4.171875 L 5.203125 -3.109375 L 5.203125 0 L 1.03125 0 L 1.03125 -12.59375 L 5.203125 -12.59375 L 5.203125 -8.03125 L 9.34375 -12.59375 L 13.96875 -12.59375 L 8.921875 -7.0625 L 14.21875 0 L 9.3125 0 Z M 6.15625 -4.171875 "/></g></g></g><g fill="#1c2120" fill-opacity="1"><g transform="translate(457.9213, 294.599216)"><g><path d="M 5.71875 0.28125 C 4.675781 0.28125 3.660156 0.164062 2.671875 -0.0625 C 1.679688 -0.289062 0.867188 -0.609375 0.234375 -1.015625 L 1.609375 -4.109375 C 2.203125 -3.753906 2.867188 -3.472656 3.609375 -3.265625 C 4.359375 -3.054688 5.078125 -2.953125 5.765625 -2.953125 C 6.347656 -2.953125 6.765625 -3.007812 7.015625 -3.125 C 7.265625 -3.238281 7.390625 -3.410156 7.390625 -3.640625 C 7.390625 -3.898438 7.222656 -4.09375 6.890625 -4.21875 C 6.566406 -4.351562 6.03125 -4.5 5.28125 -4.65625 C 4.300781 -4.863281 3.488281 -5.082031 2.84375 -5.3125 C 2.195312 -5.550781 1.632812 -5.9375 1.15625 -6.46875 C 0.675781 -7 0.4375 -7.722656 0.4375 -8.640625 C 0.4375 -9.429688 0.65625 -10.148438 1.09375 -10.796875 C 1.539062 -11.441406 2.203125 -11.953125 3.078125 -12.328125 C 3.960938 -12.703125 5.035156 -12.890625 6.296875 -12.890625 C 7.160156 -12.890625 8.007812 -12.796875 8.84375 -12.609375 C 9.675781 -12.421875 10.410156 -12.148438 11.046875 -11.796875 L 9.78125 -8.71875 C 8.539062 -9.332031 7.367188 -9.640625 6.265625 -9.640625 C 5.171875 -9.640625 4.625 -9.378906 4.625 -8.859375 C 4.625 -8.609375 4.785156 -8.414062 5.109375 -8.28125 C 5.429688 -8.15625 5.96875 -8.023438 6.71875 -7.890625 C 7.675781 -7.703125 8.484375 -7.488281 9.140625 -7.25 C 9.804688 -7.019531 10.378906 -6.640625 10.859375 -6.109375 C 11.347656 -5.585938 11.59375 -4.867188 11.59375 -3.953125 C 11.59375 -3.160156 11.367188 -2.441406 10.921875 -1.796875 C 10.484375 -1.160156 9.820312 -0.65625 8.9375 -0.28125 C 8.050781 0.09375 6.976562 0.28125 5.71875 0.28125 Z M 5.71875 0.28125 "/></g></g></g><g fill="#1c2120" fill-opacity="1"><g transform="translate(471.547269, 294.599216)"><g><path d="M 9.609375 -2.203125 L 4.828125 -2.203125 L 3.984375 0 L -0.34375 0 L 5.171875 -12.59375 L 9.34375 -12.59375 L 14.84375 0 L 10.453125 0 Z M 8.4375 -5.25 L 7.21875 -8.421875 L 6 -5.25 Z M 8.4375 -5.25 "/></g></g></g></svg>