<?xml version="1.0" encoding="UTF-8"?>
<svg xmlns="http://www.w3.org/2000/svg" xmlns:xlink="http://www.w3.org/1999/xlink" width="663.1pt" height="175.2pt" viewBox="0 0 663.1 175.2" version="1.1">
<defs>
<clipPath id="clip1">
  <path d="M 3 0 L 187 0 L 187 175.199219 L 3 175.199219 Z M 3 0 "/>
</clipPath>
</defs>
<g id="surface1">
<path style=" stroke:none;fill-rule:evenodd;fill:rgb(0%,56.443787%,20.776367%);fill-opacity:1;" d="M 248.828125 78.539063 L 252.683594 111.699219 C 252.71875 112.066406 252.753906 112.398438 252.785156 112.695313 C 252.816406 112.992188 252.863281 113.277344 252.925781 113.554688 C 253.238281 115.566406 253.835938 117.101563 254.714844 118.152344 C 255.597656 119.210938 257.382813 119.753906 260.074219 119.800781 L 258.746094 124.335938 L 231.347656 124.335938 L 232.664063 119.800781 L 233.664063 119.800781 C 233.699219 119.847656 233.761719 119.871094 233.859375 119.871094 C 233.953125 119.871094 234.023438 119.871094 234.070313 119.871094 C 234.308594 119.871094 234.550781 119.859375 234.789063 119.839844 C 235.035156 119.8125 235.300781 119.800781 235.585938 119.800781 C 236.324219 119.714844 237.027344 119.539063 237.695313 119.285156 C 238.359375 119.035156 238.804688 118.53125 239.015625 117.800781 C 239.191406 117.207031 239.277344 116.539063 239.269531 115.835938 C 239.269531 115.109375 239.226563 114.390625 239.15625 113.65625 C 239.132813 113.417969 239.105469 113.1875 239.078125 112.960938 C 239.046875 112.730469 239.019531 112.503906 238.992188 112.273438 C 238.914063 111.714844 238.847656 111.183594 238.777344 110.679688 C 238.710938 110.179688 238.679688 109.6875 238.664063 109.226563 L 222.296875 109.226563 C 221.972656 109.6875 221.605469 110.179688 221.183594 110.726563 C 220.761719 111.277344 220.324219 111.847656 219.867188 112.433594 C 219.71875 112.617188 219.578125 112.796875 219.453125 112.980469 C 219.328125 113.164063 219.199219 113.347656 219.050781 113.53125 C 218.492188 114.296875 217.972656 115.0625 217.496094 115.808594 C 217.015625 116.5625 216.703125 117.179688 216.554688 117.683594 C 216.328125 118.464844 216.519531 118.988281 217.121094 119.285156 C 217.722656 119.589844 218.445313 119.753906 219.285156 119.800781 C 219.425781 119.800781 219.59375 119.800781 219.78125 119.800781 C 219.972656 119.800781 220.140625 119.800781 220.28125 119.800781 L 221.632813 119.800781 L 220.3125 124.335938 L 201.519531 124.335938 L 202.839844 119.800781 C 205.199219 119.847656 207.078125 119.34375 208.476563 118.289063 C 209.871094 117.238281 211.238281 115.835938 212.550781 114.089844 C 212.710938 113.863281 212.886719 113.632813 213.070313 113.40625 C 213.257813 113.175781 213.429688 112.945313 213.589844 112.71875 L 238.933594 78.539063 Z M 238.261719 104.765625 L 237.296875 91.242188 C 237.210938 90.554688 237.203125 89.835938 237.285156 89.082031 C 237.363281 88.324219 237.492188 87.554688 237.671875 86.777344 C 237.335938 87.601563 236.964844 88.425781 236.558594 89.253906 C 236.152344 90.074219 235.664063 90.878906 235.109375 91.652344 L 225.449219 104.765625 Z M 322.363281 78.539063 L 319.128906 92.066406 L 314.503906 92.066406 C 315.046875 89.546875 315.121094 87.441406 314.742188 85.753906 C 314.359375 84.054688 312.621094 83.210938 309.539063 83.210938 L 302.992188 83.210938 L 294.316406 112.945313 C 293.410156 116.058594 293.28125 117.96875 293.921875 118.707031 C 294.5625 119.433594 296.472656 119.800781 299.652344 119.800781 L 298.328125 124.335938 L 270.851563 124.335938 L 272.175781 119.800781 C 275.386719 119.847656 277.515625 119.503906 278.5625 118.773438 C 279.605469 118.039063 280.574219 116.140625 281.46875 113.074219 L 290.179688 83.210938 L 282.914063 83.210938 C 280.4375 83.253906 278.53125 84.089844 277.199219 85.726563 C 275.867188 87.363281 274.824219 89.15625 274.0625 91.113281 C 274.007813 91.296875 273.949219 91.460938 273.878906 91.617188 C 273.808594 91.777344 273.746094 91.949219 273.695313 92.132813 L 269.085938 92.066406 L 273.671875 78.539063 Z M 358.023438 78.539063 L 361.878906 111.699219 C 361.914063 112.066406 361.949219 112.398438 361.980469 112.695313 C 362.011719 112.992188 362.058594 113.277344 362.121094 113.554688 C 362.4375 115.566406 363.03125 117.101563 363.914063 118.152344 C 364.789063 119.210938 366.578125 119.753906 369.269531 119.800781 L 367.945313 124.335938 L 340.539063 124.335938 L 341.863281 119.800781 L 342.859375 119.800781 C 342.894531 119.847656 342.953125 119.871094 343.054688 119.871094 C 343.148438 119.871094 343.21875 119.871094 343.265625 119.871094 C 343.503906 119.871094 343.746094 119.859375 343.988281 119.839844 C 344.234375 119.8125 344.496094 119.800781 344.78125 119.800781 C 345.519531 119.714844 346.222656 119.539063 346.890625 119.285156 C 347.554688 119.035156 347.996094 118.53125 348.210938 117.800781 C 348.386719 117.207031 348.472656 116.539063 348.464844 115.835938 C 348.464844 115.109375 348.425781 114.390625 348.351563 113.65625 C 348.328125 113.417969 348.300781 113.1875 348.273438 112.960938 C 348.242188 112.730469 348.214844 112.503906 348.1875 112.273438 C 348.113281 111.714844 348.039063 111.183594 347.976563 110.679688 C 347.90625 110.179688 347.871094 109.6875 347.863281 109.226563 L 331.492188 109.226563 C 331.164063 109.6875 330.800781 110.179688 330.378906 110.726563 C 329.953125 111.277344 329.519531 111.847656 329.0625 112.433594 C 328.914063 112.617188 328.777344 112.796875 328.652344 112.980469 C 328.53125 113.164063 328.394531 113.347656 328.246094 113.53125 C 327.6875 114.296875 327.164063 115.0625 326.691406 115.808594 C 326.210938 116.5625 325.898438 117.179688 325.753906 117.683594 C 325.523438 118.464844 325.714844 118.988281 326.316406 119.285156 C 326.914063 119.589844 327.640625 119.753906 328.480469 119.800781 C 328.621094 119.800781 328.789063 119.800781 328.980469 119.800781 C 329.164063 119.800781 329.335938 119.800781 329.476563 119.800781 L 330.828125 119.800781 L 329.507813 124.335938 L 310.714844 124.335938 L 312.035156 119.800781 C 314.394531 119.847656 316.273438 119.34375 317.675781 118.289063 C 319.074219 117.238281 320.433594 115.835938 321.746094 114.089844 C 321.90625 113.863281 322.078125 113.632813 322.265625 113.40625 C 322.453125 113.175781 322.621094 112.945313 322.789063 112.71875 L 348.128906 78.539063 Z M 347.453125 104.765625 L 346.492188 91.242188 C 346.40625 90.554688 346.402344 89.835938 346.480469 89.082031 C 346.558594 88.324219 346.6875 87.554688 346.867188 86.777344 C 346.53125 87.601563 346.160156 88.425781 345.753906 89.253906 C 345.347656 90.074219 344.867188 90.878906 344.304688 91.652344 L 334.644531 104.765625 Z M 430.164063 78.195313 L 425.867188 94.878906 L 421.097656 94.878906 C 421.8125 90.804688 421.269531 87.613281 419.476563 85.300781 C 417.683594 82.992188 414.675781 81.839844 410.453125 81.839844 C 406.085938 81.839844 402.4375 83.355469 399.511719 86.402344 C 396.578125 89.445313 394.300781 92.796875 392.660156 96.460938 C 392.238281 97.417969 391.855469 98.371094 391.511719 99.308594 C 391.164063 100.246094 390.867188 101.148438 390.613281 102.019531 C 389.160156 107.007813 389.035156 111.378906 390.242188 115.132813 C 391.449219 118.886719 394.992188 120.761719 400.878906 120.761719 C 404.53125 120.761719 408.054688 119.871094 411.445313 118.089844 C 414.839844 116.300781 417.910156 113.941406 420.664063 111.011719 L 424.085938 114.171875 C 419.921875 118.199219 415.730469 121.128906 411.519531 122.964844 C 407.308594 124.789063 402.617188 125.710938 397.445313 125.710938 C 390.089844 125.710938 384.34375 123.632813 380.214844 119.492188 C 376.078125 115.351563 375.105469 109.550781 377.28125 102.089844 C 379.3125 95.132813 383.554688 89.253906 390.007813 84.445313 C 396.464844 79.636719 403.273438 77.234375 410.441406 77.234375 C 410.628906 77.234375 410.808594 77.234375 410.976563 77.234375 C 411.140625 77.234375 411.296875 77.234375 411.4375 77.234375 C 413.828125 77.332031 416.097656 77.691406 418.234375 78.335938 C 420.371094 78.972656 422.214844 79.980469 423.761719 81.355469 C 424.226563 80.898438 424.644531 80.40625 425.011719 79.878906 C 425.378906 79.351563 425.6875 78.8125 425.941406 78.265625 Z M 470.78125 78.539063 L 474.632813 111.699219 C 474.664063 112.066406 474.703125 112.398438 474.734375 112.695313 C 474.765625 112.992188 474.8125 113.277344 474.871094 113.554688 C 475.191406 115.566406 475.789063 117.101563 476.664063 118.152344 C 477.546875 119.210938 479.328125 119.753906 482.023438 119.800781 L 480.703125 124.335938 L 453.296875 124.335938 L 454.617188 119.800781 L 455.613281 119.800781 C 455.648438 119.847656 455.714844 119.871094 455.808594 119.871094 C 455.902344 119.871094 455.972656 119.871094 456.019531 119.871094 C 456.257813 119.871094 456.496094 119.859375 456.742188 119.839844 C 456.988281 119.8125 457.246094 119.800781 457.535156 119.800781 C 458.273438 119.714844 458.976563 119.539063 459.644531 119.285156 C 460.3125 119.035156 460.753906 118.53125 460.96875 117.800781 C 461.140625 117.207031 461.226563 116.539063 461.222656 115.835938 C 461.21875 115.109375 461.179688 114.390625 461.109375 113.65625 C 461.078125 113.417969 461.054688 113.1875 461.027344 112.960938 C 460.996094 112.730469 460.96875 112.503906 460.941406 112.273438 C 460.867188 111.714844 460.796875 111.183594 460.730469 110.679688 C 460.664063 110.179688 460.628906 109.6875 460.621094 109.226563 L 444.246094 109.226563 C 443.925781 109.6875 443.554688 110.179688 443.132813 110.726563 C 442.714844 111.277344 442.273438 111.847656 441.820313 112.433594 C 441.671875 112.617188 441.535156 112.796875 441.410156 112.980469 C 441.285156 113.164063 441.148438 113.347656 440.996094 113.53125 C 440.445313 114.296875 439.921875 115.0625 439.445313 115.808594 C 438.964844 116.5625 438.652344 117.179688 438.507813 117.683594 C 438.28125 118.464844 438.472656 118.988281 439.070313 119.285156 C 439.671875 119.589844 440.394531 119.753906 441.234375 119.800781 C 441.378906 119.800781 441.539063 119.800781 441.734375 119.800781 C 441.921875 119.800781 442.089844 119.800781 442.230469 119.800781 L 443.585938 119.800781 L 442.261719 124.335938 L 423.46875 124.335938 L 424.789063 119.800781 C 427.152344 119.847656 429.03125 119.34375 430.429688 118.289063 C 431.828125 117.238281 433.1875 115.835938 434.496094 114.089844 C 434.664063 113.863281 434.835938 113.632813 435.023438 113.40625 C 435.203125 113.175781 435.378906 112.945313 435.539063 112.71875 L 460.886719 78.539063 Z M 460.214844 104.765625 L 459.246094 91.242188 C 459.160156 90.554688 459.15625 89.835938 459.234375 89.082031 C 459.3125 88.324219 459.441406 87.554688 459.621094 86.777344 C 459.285156 87.601563 458.914063 88.425781 458.507813 89.253906 C 458.101563 90.074219 457.621094 90.878906 457.0625 91.652344 L 447.398438 104.765625 Z M 482.621094 124.335938 L 483.964844 119.734375 C 487.035156 119.777344 489.058594 119.390625 490.035156 118.566406 C 491.011719 117.742188 491.921875 115.886719 492.761719 113.003906 L 499.46875 90.003906 C 500.296875 87.167969 500.464844 85.324219 499.976563 84.476563 C 499.488281 83.632813 497.703125 83.210938 494.617188 83.210938 L 495.980469 78.539063 L 522.175781 78.539063 C 529.46875 78.589844 535.515625 80.394531 540.308594 83.964844 C 545.105469 87.535156 546.351563 93.277344 544.039063 101.195313 C 543.90625 101.652344 543.765625 102.101563 543.613281 102.535156 C 543.464844 102.96875 543.296875 103.414063 543.117188 103.878906 C 542.238281 106.070313 541.070313 108.246094 539.613281 110.394531 C 538.15625 112.546875 536.460938 114.492188 534.53125 116.230469 C 530.996094 119.390625 527.199219 121.519531 523.128906 122.617188 C 519.058594 123.714844 515.027344 124.285156 511.027344 124.335938 C 510.835938 124.335938 510.648438 124.335938 510.453125 124.335938 C 510.265625 124.335938 510.078125 124.335938 509.886719 124.335938 Z M 514.371094 83.070313 L 505.152344 114.445313 C 504.472656 116.78125 504.535156 118.28125 505.335938 118.941406 C 506.140625 119.605469 507.632813 119.9375 509.816406 119.9375 C 515.605469 119.9375 520.199219 118.015625 523.601563 114.160156 C 527.003906 110.304688 529.414063 105.933594 530.851563 101.023438 C 531.011719 100.476563 531.152344 99.914063 531.269531 99.34375 C 531.390625 98.769531 531.507813 98.199219 531.621094 97.648438 C 532.113281 94.171875 531.738281 90.941406 530.488281 87.992188 C 529.238281 85.027344 526.628906 83.4375 522.664063 83.210938 C 521.3125 83.117188 519.941406 83.070313 518.539063 83.070313 C 517.140625 83.070313 515.746094 83.070313 514.371094 83.070313 Z M 587.449219 78.539063 L 591.304688 111.699219 C 591.339844 112.066406 591.371094 112.398438 591.40625 112.695313 C 591.4375 112.992188 591.484375 113.277344 591.546875 113.554688 C 591.859375 115.566406 592.453125 117.101563 593.335938 118.152344 C 594.214844 119.210938 595.996094 119.753906 598.695313 119.800781 L 597.371094 124.335938 L 569.964844 124.335938 L 571.289063 119.800781 L 572.285156 119.800781 C 572.320313 119.847656 572.382813 119.871094 572.476563 119.871094 C 572.574219 119.871094 572.644531 119.871094 572.691406 119.871094 C 572.929688 119.871094 573.164063 119.859375 573.414063 119.839844 C 573.65625 119.8125 573.921875 119.800781 574.203125 119.800781 C 574.945313 119.714844 575.648438 119.539063 576.3125 119.285156 C 576.980469 119.035156 577.425781 118.53125 577.636719 117.800781 C 577.8125 117.207031 577.898438 116.539063 577.890625 115.835938 C 577.886719 115.109375 577.847656 114.390625 577.777344 113.65625 C 577.753906 113.417969 577.726563 113.1875 577.695313 112.960938 C 577.664063 112.730469 577.640625 112.503906 577.613281 112.273438 C 577.539063 111.714844 577.464844 111.183594 577.398438 110.679688 C 577.328125 110.179688 577.296875 109.6875 577.289063 109.226563 L 560.914063 109.226563 C 560.59375 109.6875 560.226563 110.179688 559.804688 110.726563 C 559.382813 111.277344 558.941406 111.847656 558.488281 112.433594 C 558.339844 112.617188 558.203125 112.796875 558.078125 112.980469 C 557.953125 113.164063 557.816406 113.347656 557.664063 113.53125 C 557.113281 114.296875 556.59375 115.0625 556.117188 115.808594 C 555.632813 116.5625 555.324219 117.179688 555.175781 117.683594 C 554.949219 118.464844 555.140625 118.988281 555.742188 119.285156 C 556.34375 119.589844 557.0625 119.753906 557.90625 119.800781 C 558.046875 119.800781 558.214844 119.800781 558.402344 119.800781 C 558.59375 119.800781 558.757813 119.800781 558.902344 119.800781 L 560.253906 119.800781 L 558.933594 124.335938 L 540.140625 124.335938 L 541.460938 119.800781 C 543.820313 119.847656 545.699219 119.34375 547.097656 118.289063 C 548.496094 117.238281 549.855469 115.835938 551.171875 114.089844 C 551.328125 113.863281 551.507813 113.632813 551.691406 113.40625 C 551.871094 113.175781 552.050781 112.945313 552.210938 112.71875 L 577.554688 78.539063 Z M 576.882813 104.765625 L 575.914063 91.242188 C 575.828125 90.554688 575.828125 89.835938 575.90625 89.082031 C 575.984375 88.324219 576.113281 87.554688 576.289063 86.777344 C 575.953125 87.601563 575.585938 88.425781 575.179688 89.253906 C 574.773438 90.074219 574.289063 90.878906 573.730469 91.652344 L 564.070313 104.765625 Z M 596.300781 66.253906 L 598.652344 68.929688 C 598.503906 69.109375 598.34375 69.296875 598.171875 69.476563 C 597.996094 69.660156 597.824219 69.820313 597.640625 69.960938 C 596.304688 71.285156 594.804688 72.488281 593.136719 73.5625 C 591.472656 74.636719 589.785156 75.175781 588.074219 75.175781 C 587.121094 75.175781 586.230469 75.039063 585.382813 74.761719 C 584.539063 74.488281 583.742188 74.171875 582.996094 73.800781 C 582.898438 73.800781 582.820313 73.789063 582.753906 73.769531 C 582.691406 73.746094 582.640625 73.714844 582.605469 73.664063 C 581.828125 73.390625 581.066406 73.128906 580.308594 72.878906 C 579.554688 72.628906 578.746094 72.496094 577.894531 72.496094 C 577.132813 72.496094 576.386719 72.738281 575.65625 73.21875 C 574.921875 73.699219 574.238281 74.214844 573.601563 74.761719 C 573.515625 74.902344 573.410156 75.015625 573.289063 75.105469 C 573.164063 75.199219 573.070313 75.289063 572.996094 75.382813 L 570.066406 72.976563 C 570.199219 72.839844 570.355469 72.679688 570.527344 72.496094 C 570.699219 72.316406 570.859375 72.132813 571.007813 71.949219 C 572.445313 70.4375 574.136719 69.066406 576.085938 67.828125 C 578.039063 66.59375 579.9375 65.976563 581.789063 65.976563 C 582.738281 65.976563 583.613281 66.113281 584.410156 66.386719 C 585.203125 66.660156 585.984375 66.964844 586.746094 67.28125 C 586.84375 67.28125 586.910156 67.296875 586.949219 67.3125 C 586.992188 67.339844 587.027344 67.371094 587.0625 67.421875 C 587.777344 67.738281 588.515625 68.011719 589.277344 68.242188 C 590.039063 68.46875 590.851563 68.589844 591.703125 68.589844 C 592.558594 68.589844 593.367188 68.34375 594.121094 67.878906 C 594.871094 67.40625 595.597656 66.867188 596.300781 66.253906 Z M 660.894531 101.539063 C 658.679688 109.136719 654.316406 115.0625 647.808594 119.320313 C 641.300781 123.582031 634.296875 125.710938 626.796875 125.710938 C 619.109375 125.710938 613.304688 123.601563 609.382813 119.390625 C 605.464844 115.179688 604.632813 109.210938 606.886719 101.46875 C 609.074219 93.964844 613.421875 88.046875 619.929688 83.722656 C 626.433594 79.398438 633.410156 77.234375 640.863281 77.234375 C 648.453125 77.234375 654.246094 79.386719 658.234375 83.6875 C 662.222656 87.992188 663.105469 93.964844 660.871094 101.609375 Z M 647.621094 101.402344 C 647.8125 100.761719 647.996094 100.074219 648.1875 99.34375 C 648.378906 98.609375 648.53125 97.878906 648.652344 97.144531 C 649.441406 93.300781 649.351563 89.789063 648.378906 86.605469 C 647.410156 83.425781 644.503906 81.839844 639.664063 81.839844 C 635.441406 81.839844 631.871094 83.324219 628.964844 86.296875 C 626.058594 89.273438 623.796875 92.546875 622.1875 96.113281 C 621.777344 97.03125 621.402344 97.945313 621.066406 98.863281 C 620.726563 99.777344 620.433594 100.667969 620.179688 101.539063 C 619.964844 102.269531 619.769531 103.015625 619.597656 103.769531 C 619.425781 104.527344 619.273438 105.292969 619.140625 106.070313 C 618.472656 109.824219 618.675781 113.277344 619.746094 116.4375 C 620.820313 119.59375 623.65625 121.175781 628.261719 121.175781 C 632.960938 121.175781 636.714844 119.605469 639.527344 116.472656 C 642.339844 113.339844 644.515625 109.867188 646.046875 106.070313 C 646.371094 105.292969 646.65625 104.515625 646.90625 103.734375 C 647.15625 102.960938 647.390625 102.207031 647.605469 101.46875 Z M 647.621094 101.402344 "/>
<path style="fill-rule:evenodd;fill:rgb(0%,56.443787%,20.776367%);fill-opacity:1;stroke-width:2.16;stroke-linecap:butt;stroke-linejoin:miter;stroke:rgb(0%,56.443787%,20.776367%);stroke-opacity:1;stroke-miterlimit:4;" d="M 1.171875 947.078125 L 1901.71875 947.078125 L 1901.71875 994.8125 L 1.171875 994.8125 Z M 1.171875 947.078125 " transform="matrix(0.1,0,0,-0.1,0,175.2)"/>
<path style="fill-rule:evenodd;fill:rgb(0%,56.443787%,20.776367%);fill-opacity:1;stroke-width:2.16;stroke-linecap:butt;stroke-linejoin:miter;stroke:rgb(0%,56.443787%,20.776367%);stroke-opacity:1;stroke-miterlimit:4;" d="M 1.171875 841.375 L 1901.71875 841.375 L 1901.71875 889.070313 L 1.171875 889.070313 Z M 1.171875 841.375 " transform="matrix(0.1,0,0,-0.1,0,175.2)"/>
<path style="fill-rule:evenodd;fill:rgb(0%,56.443787%,20.776367%);fill-opacity:1;stroke-width:2.16;stroke-linecap:butt;stroke-linejoin:miter;stroke:rgb(0%,56.443787%,20.776367%);stroke-opacity:1;stroke-miterlimit:4;" d="M 1.171875 735.632813 L 1901.71875 735.632813 L 1901.71875 783.40625 L 1.171875 783.40625 Z M 1.171875 735.632813 " transform="matrix(0.1,0,0,-0.1,0,175.2)"/>
<path style="fill-rule:evenodd;fill:rgb(0%,56.443787%,20.776367%);fill-opacity:1;stroke-width:2.16;stroke-linecap:butt;stroke-linejoin:miter;stroke:rgb(0%,56.443787%,20.776367%);stroke-opacity:1;stroke-miterlimit:4;" d="M 1.171875 629.929688 L 1901.71875 629.929688 L 1901.71875 677.664063 L 1.171875 677.664063 Z M 1.171875 629.929688 " transform="matrix(0.1,0,0,-0.1,0,175.2)"/>
<path style="fill-rule:evenodd;fill:rgb(0%,56.443787%,20.776367%);fill-opacity:1;stroke-width:2.16;stroke-linecap:butt;stroke-linejoin:miter;stroke:rgb(0%,56.443787%,20.776367%);stroke-opacity:1;stroke-miterlimit:4;" d="M 1.171875 524.1875 L 1901.71875 524.1875 L 1901.71875 571.960938 L 1.171875 571.960938 Z M 1.171875 524.1875 " transform="matrix(0.1,0,0,-0.1,0,175.2)"/>
<g clip-path="url(#clip1)" clip-rule="nonzero">
<path style=" stroke:none;fill-rule:evenodd;fill:rgb(94.139099%,48.631287%,0%);fill-opacity:1;" d="M 73.160156 132.390625 C 91.789063 104.335938 110.414063 76.273438 129.046875 48.214844 L 129.277344 75.035156 L 166.578125 75.035156 L 166.996094 0.261719 C 152.507813 0.148438 138.015625 0.03125 123.527344 -0.078125 C 95.410156 40.570313 76.414063 69.390625 60.214844 92.695313 C 33.398438 131.285156 31.269531 149.226563 4.164063 146.878906 C 4.042969 156.308594 3.933594 165.738281 3.816406 175.171875 C 29.578125 174.710938 55.335938 174.25 81.09375 173.792969 C 80.980469 164.820313 80.863281 155.851563 80.746094 146.878906 C 67.320313 147.054688 64.789063 142.222656 73.160156 132.390625 Z M 129.703125 124.144531 L 129.738281 127.5625 C 129.160156 147.222656 126.777344 146.15625 111.453125 146.535156 C 111.335938 155.851563 111.222656 165.164063 111.109375 174.480469 C 136.175781 174.25 161.246094 174.019531 186.3125 173.792969 C 186.3125 165.050781 186.3125 156.308594 186.3125 147.570313 C 171.441406 148.90625 165.734375 142.910156 166.304688 125.492188 L 166.3125 124.144531 Z M 129.703125 124.144531 "/>
</g>
</g>
</svg>
