<svg width="517" height="179" viewBox="0 0 517 179" fill="none" xmlns="http://www.w3.org/2000/svg">
<path d="M344.903 45.0507L342.727 45.2454C342.727 45.2454 297.025 48.8774 279.24 51.8414C261.451 54.812 213.569 62.6534 199.785 64.0347C186.008 65.4134 141.977 69.5387 110.047 63.764C100.735 62.0787 90.6547 59.3827 82.084 56.7507C66.1307 63.516 52.632 65.8654 42.4853 66.3587C38.44 66.556 34.9293 66.4627 32 66.2294C35.98 68.904 40.3294 71.5854 44.9294 73.8134C49.6267 76.084 56.216 79.132 64.4067 82.184C79.2454 87.7174 99.3467 93.2827 123.013 94.3667C159.737 96.044 216.797 86.5307 240.317 81.3814C255.64 78.016 283.773 115.503 312.704 120.912C322.077 122.665 328.139 130.048 331.489 136.263C351.965 117.828 398.097 81.9307 458.677 69.22C438.167 58.0294 399.349 42.4947 344.903 45.0507Z" fill="#1F82C0"/>
<path d="M239.741 145.959L195.085 145.852L206.597 117.951C204.202 117.948 201.642 117.939 198.953 117.932L186.921 145.882L179.15 145.862C179.15 145.862 118.954 145.719 108.494 145.699C100.493 145.631 93.4513 142.182 88.1926 136.974C82.9513 131.766 79.29 124.32 79.2993 115.816C79.302 112.519 79.8873 109.13 81.0553 105.836C86.246 91.0175 96.686 82.3708 105.323 78.3015C114.006 74.1482 120.967 73.7788 121.966 73.7082L122.27 73.6935L348.135 74.2268L348.122 80.8562L350.761 78.0295L354.262 74.2868L398.193 74.3895L397.947 146.319L351.581 146.295L351.605 136.218L339.635 146.2L303.319 146.118L303.345 137.86L294.315 146.13L239.605 146.106L239.741 145.959Z" fill="#1F82C0"/>
<path d="M484.175 64.7882H484.16C484.16 64.7882 436.535 26.8776 352.874 32.5856L350.713 32.8269C350.713 32.8269 305.091 37.4189 287.369 40.7576C269.649 44.1002 221.938 52.9549 208.194 54.6282C194.444 56.2962 150.511 61.3509 118.464 56.2496C108.995 54.7376 100.811 52.8576 93.8722 50.9322C91.6442 52.0149 89.6002 53.0349 87.8522 53.9109C94.2628 55.7562 101.671 57.5576 110.103 59.0869C142.043 64.8616 186.071 60.7376 199.849 59.3549C213.629 57.9736 261.512 50.1322 279.304 47.1616C297.091 44.1976 342.795 40.5656 342.795 40.5656L344.961 40.3709C405.338 37.5309 446.511 56.9496 464.798 68.0176C471.35 66.8309 478.067 65.9336 484.923 65.3616C484.674 65.1696 484.426 64.9776 484.175 64.7882Z" fill="#D0332E"/>
<path d="M256 128.704L266.343 117.67L260.331 117.629L256 128.704ZM356.055 78.4237L353.778 80.8531L343.959 91.3451L343.994 78.3491L122.35 77.8237L122.167 77.8331C121.518 77.8797 115.056 78.2104 107.115 82.0224C99.2138 85.7717 89.7657 93.5184 84.9537 107.222C83.9311 110.082 83.4324 113 83.4271 115.825C83.4151 123.106 86.5618 129.521 91.1071 134.052C95.6711 138.577 101.774 141.517 108.506 141.568C118.966 141.592 179.155 141.733 179.162 141.733L184.204 141.745L196.236 113.793C202.468 113.809 208.162 113.824 212.764 113.836L201.25 141.736L246.171 141.842L257.046 113.892L275.416 113.933L249.136 141.981L292.706 142L307.491 128.445L307.463 141.993L338.144 142.066L355.752 127.376L355.72 142.168L393.831 142.185L394.052 78.5117L356.055 78.4237Z" fill="white"/>
<path d="M122.536 85.4789C122.536 85.4789 100.428 86.5336 92.1609 109.79C87.6583 122.447 98.0649 133.898 108.52 133.919C118.984 133.944 179.176 134.087 179.176 134.087L187.981 113.628L123.212 113.479C123.212 113.479 116.846 113.91 118.913 109.58C120.737 105.746 123.812 105.976 124.86 105.979C125.504 105.979 162.61 106.07 191.278 106.135L200.11 85.6589L122.536 85.4789Z" fill="#003883"/>
<path d="M208.459 85.6803L199.607 106.155C213.73 106.191 224.19 106.211 224.19 106.211L212.673 134.122L240.942 134.187L251.822 106.227L282.441 106.298L301.675 85.9097L208.459 85.6803Z" fill="#003883"/>
<path d="M359.368 86.0787L336.27 110.768L336.329 85.9813L312.07 85.9253L292.96 106.328H293.03L266.781 134.343L289.736 134.355L315.186 111.019L315.13 134.367L335.385 134.417L363.445 111.003L363.389 134.527L386.214 134.535L386.377 86.1467L359.368 86.0787Z" fill="#003883"/>
</svg>
